G04*
G04 #@! TF.GenerationSoftware,Altium Limited,Altium Designer,21.6.4 (81)*
G04*
G04 Layer_Color=16711935*
%FSLAX25Y25*%
%MOIN*%
G70*
G04*
G04 #@! TF.SameCoordinates,5B244758-CEA0-4159-AF34-73EF1895305B*
G04*
G04*
G04 #@! TF.FilePolarity,Negative*
G04*
G01*
G75*
%ADD41C,0.12205*%
%ADD42R,0.06894X0.06894*%
%ADD43C,0.06894*%
%ADD44C,0.10394*%
%ADD45C,0.06299*%
%ADD46R,0.06299X0.06299*%
%ADD47R,0.06299X0.06299*%
%ADD48R,0.08071X0.08071*%
%ADD49C,0.08071*%
%ADD50C,0.07394*%
%ADD51C,0.05394*%
%ADD52C,0.02362*%
%ADD53C,0.02994*%
D41*
X420268Y448457D02*
D03*
X470268D02*
D03*
D42*
X435500Y428000D02*
D03*
D43*
X445500D02*
D03*
X455500D02*
D03*
D44*
X256500Y473500D02*
D03*
X282500D02*
D03*
X361000Y311000D02*
D03*
Y290500D02*
D03*
D45*
X256000Y431500D02*
D03*
X319500Y253000D02*
D03*
X386500D02*
D03*
X376500D02*
D03*
X366500D02*
D03*
X356500D02*
D03*
X346500D02*
D03*
X446500Y399500D02*
D03*
X456500D02*
D03*
X257000Y367000D02*
D03*
Y357000D02*
D03*
Y347000D02*
D03*
Y337000D02*
D03*
Y327000D02*
D03*
Y317000D02*
D03*
Y307000D02*
D03*
Y297000D02*
D03*
Y287000D02*
D03*
Y277000D02*
D03*
Y267000D02*
D03*
X350500Y395500D02*
D03*
X468000Y304000D02*
D03*
X273500Y253000D02*
D03*
X283500D02*
D03*
X401000D02*
D03*
D46*
X256000Y421500D02*
D03*
X257000Y377000D02*
D03*
X468000Y294000D02*
D03*
D47*
X309500Y253000D02*
D03*
X336500D02*
D03*
X466500Y399500D02*
D03*
X360500Y395500D02*
D03*
X293500Y253000D02*
D03*
X411000D02*
D03*
D48*
X366815Y458500D02*
D03*
X319815D02*
D03*
D49*
X386500D02*
D03*
X339500D02*
D03*
D50*
X265500Y398500D02*
D03*
X307000Y381000D02*
D03*
D51*
X338500Y409000D02*
D03*
X302000Y305500D02*
D03*
D52*
X310000Y346000D02*
D03*
Y326000D02*
D03*
X292000Y346000D02*
D03*
Y326000D02*
D03*
D53*
X335000Y279000D02*
D03*
X341500Y273500D02*
D03*
M02*
