G04*
G04 #@! TF.GenerationSoftware,Altium Limited,Altium Designer,21.6.4 (81)*
G04*
G04 Layer_Color=8421504*
%FSLAX25Y25*%
%MOIN*%
G70*
G04*
G04 #@! TF.SameCoordinates,FDF78369-4BF3-4085-89EE-F1590D183F6A*
G04*
G04*
G04 #@! TF.FilePolarity,Positive*
G04*
G01*
G75*
%ADD19R,0.03543X0.06496*%
%ADD20R,0.03347X0.02756*%
%ADD21R,0.02756X0.03347*%
%ADD22R,0.05000X0.02008*%
%ADD23R,0.17126X0.17126*%
%ADD24O,0.01181X0.05512*%
%ADD25O,0.05512X0.01181*%
%ADD26R,0.08268X0.22047*%
%ADD27R,0.02953X0.04921*%
%ADD28R,0.04724X0.05512*%
%ADD29R,0.03937X0.05315*%
%ADD30R,0.05315X0.03937*%
D19*
X305504Y396000D02*
D03*
X293496D02*
D03*
X293496Y406000D02*
D03*
X305504D02*
D03*
X305504Y416500D02*
D03*
X293496D02*
D03*
X293496Y427000D02*
D03*
X305504D02*
D03*
X305504Y437500D02*
D03*
X293496D02*
D03*
X293496Y448000D02*
D03*
X305504D02*
D03*
X305504Y458500D02*
D03*
X293496D02*
D03*
D20*
X328000Y337248D02*
D03*
Y330752D02*
D03*
D21*
X391252Y422000D02*
D03*
X397748D02*
D03*
X376752D02*
D03*
X383248D02*
D03*
X362004D02*
D03*
X368500D02*
D03*
X332252D02*
D03*
X338748D02*
D03*
X390000Y262500D02*
D03*
X383504D02*
D03*
X346752Y422000D02*
D03*
X353248D02*
D03*
X371752Y262500D02*
D03*
X378248D02*
D03*
X326248Y265500D02*
D03*
X319752D02*
D03*
D22*
X417555Y309894D02*
D03*
Y299500D02*
D03*
X417575Y289539D02*
D03*
X449622Y299500D02*
D03*
X449622Y309894D02*
D03*
X449622Y289539D02*
D03*
D23*
X301000Y336000D02*
D03*
D24*
X290173Y352535D02*
D03*
X294110D02*
D03*
X298047D02*
D03*
X300016D02*
D03*
X305921D02*
D03*
X307890D02*
D03*
X309858D02*
D03*
X311827D02*
D03*
Y319465D02*
D03*
X309858D02*
D03*
X307890D02*
D03*
X305921D02*
D03*
X303953D02*
D03*
X301984D02*
D03*
X300016D02*
D03*
X298047D02*
D03*
X296079D02*
D03*
X294110D02*
D03*
X292142D02*
D03*
X290173D02*
D03*
X301984Y352535D02*
D03*
X303953D02*
D03*
X296079D02*
D03*
X292142D02*
D03*
D25*
X317535Y346827D02*
D03*
Y344858D02*
D03*
Y342890D02*
D03*
Y340921D02*
D03*
Y338953D02*
D03*
Y336984D02*
D03*
Y333047D02*
D03*
Y331079D02*
D03*
Y329110D02*
D03*
Y327142D02*
D03*
Y325173D02*
D03*
X284465D02*
D03*
Y327142D02*
D03*
Y329110D02*
D03*
Y331079D02*
D03*
Y333047D02*
D03*
Y335016D02*
D03*
Y336984D02*
D03*
Y338953D02*
D03*
Y340921D02*
D03*
Y342890D02*
D03*
Y344858D02*
D03*
Y346827D02*
D03*
X317535Y335016D02*
D03*
D26*
X382500Y377701D02*
D03*
Y340299D02*
D03*
D27*
X334437Y378500D02*
D03*
X326563D02*
D03*
X274437Y370500D02*
D03*
X266563D02*
D03*
D28*
X385407Y409465D02*
D03*
X397507D02*
D03*
D29*
X397358Y348500D02*
D03*
X404642D02*
D03*
Y370000D02*
D03*
X397358D02*
D03*
X359642Y405000D02*
D03*
X352358D02*
D03*
X315142Y363500D02*
D03*
X307858D02*
D03*
X297142D02*
D03*
X289858D02*
D03*
X274142Y379000D02*
D03*
X266858D02*
D03*
D30*
X478500Y399642D02*
D03*
Y392358D02*
D03*
X298500Y289358D02*
D03*
Y296642D02*
D03*
X305500Y289358D02*
D03*
Y296642D02*
D03*
X318000Y289358D02*
D03*
Y296642D02*
D03*
X286000Y289358D02*
D03*
Y296642D02*
D03*
M02*
