G04*
G04 #@! TF.GenerationSoftware,Altium Limited,Altium Designer,21.6.4 (81)*
G04*
G04 Layer_Color=255*
%FSLAX25Y25*%
%MOIN*%
G70*
G04*
G04 #@! TF.SameCoordinates,FDF78369-4BF3-4085-89EE-F1590D183F6A*
G04*
G04*
G04 #@! TF.FilePolarity,Positive*
G04*
G01*
G75*
%ADD60C,0.11811*%
%ADD61R,0.06500X0.06500*%
%ADD62C,0.06500*%
%ADD63C,0.10000*%
%ADD64C,0.05906*%
%ADD65R,0.05906X0.05906*%
%ADD66R,0.05906X0.05906*%
%ADD67R,0.07677X0.07677*%
%ADD68C,0.07677*%
D60*
X420268Y448457D02*
D03*
X470268D02*
D03*
D61*
X435500Y428000D02*
D03*
D62*
X445500D02*
D03*
X455500D02*
D03*
D63*
X256500Y473500D02*
D03*
X282500D02*
D03*
X361000Y311000D02*
D03*
Y290500D02*
D03*
D64*
X256000Y431500D02*
D03*
X319500Y253000D02*
D03*
X386500D02*
D03*
X376500D02*
D03*
X366500D02*
D03*
X356500D02*
D03*
X346500D02*
D03*
X446500Y399500D02*
D03*
X456500D02*
D03*
X257000Y367000D02*
D03*
Y357000D02*
D03*
Y347000D02*
D03*
Y337000D02*
D03*
Y327000D02*
D03*
Y317000D02*
D03*
Y307000D02*
D03*
Y297000D02*
D03*
Y287000D02*
D03*
Y277000D02*
D03*
Y267000D02*
D03*
X350500Y395500D02*
D03*
X468000Y304000D02*
D03*
X273500Y253000D02*
D03*
X283500D02*
D03*
X401000D02*
D03*
D65*
X256000Y421500D02*
D03*
X257000Y377000D02*
D03*
X468000Y294000D02*
D03*
D66*
X309500Y253000D02*
D03*
X336500D02*
D03*
X466500Y399500D02*
D03*
X360500Y395500D02*
D03*
X293500Y253000D02*
D03*
X411000D02*
D03*
D67*
X366815Y458500D02*
D03*
X319815D02*
D03*
D68*
X386500D02*
D03*
X339500D02*
D03*
M02*
