G04*
G04 #@! TF.GenerationSoftware,Altium Limited,Altium Designer,21.6.4 (81)*
G04*
G04 Layer_Color=16711935*
%FSLAX25Y25*%
%MOIN*%
G70*
G04*
G04 #@! TF.SameCoordinates,FDF78369-4BF3-4085-89EE-F1590D183F6A*
G04*
G04*
G04 #@! TF.FilePolarity,Positive*
G04*
G01*
G75*
%ADD10C,0.00600*%
%ADD14C,0.00787*%
%ADD15C,0.00394*%
%ADD16C,0.00500*%
%ADD73C,0.00000*%
%ADD74C,0.00100*%
D10*
X434500Y428000D02*
X436500D01*
X435500Y427000D02*
Y429000D01*
D14*
X367209Y440784D02*
X366421D01*
X367209D01*
X320209D02*
X319421D01*
X320209D01*
X409244Y475622D02*
X481291D01*
Y440583D02*
Y475622D01*
X409244Y440583D02*
X481291D01*
X409244D02*
Y475622D01*
Y413024D02*
Y440583D01*
Y413024D02*
X415740D01*
Y440583D01*
X481291Y413024D02*
Y440583D01*
X474795Y413024D02*
X481291D01*
X474795D02*
Y440583D01*
D15*
X292732Y346236D02*
X292469Y347220D01*
X291748Y347941D01*
X290764Y348205D01*
X289779Y347941D01*
X289059Y347220D01*
X288795Y346236D01*
X289059Y345252D01*
X289779Y344531D01*
X290764Y344268D01*
X291748Y344531D01*
X292469Y345252D01*
X292732Y346236D01*
X293201Y392850D02*
X305799D01*
X293201Y399150D02*
X305799D01*
Y392850D02*
Y399150D01*
X293201Y392850D02*
Y399150D01*
X293201Y409150D02*
X305799D01*
X293201Y402850D02*
X305799D01*
X293201D02*
Y409150D01*
X305799Y402850D02*
Y409150D01*
X293201Y413350D02*
X305799D01*
X293201Y419650D02*
X305799D01*
Y413350D02*
Y419650D01*
X293201Y413350D02*
Y419650D01*
X326425Y330850D02*
X329575D01*
X326425Y337150D02*
X329575D01*
X326425Y330850D02*
Y337150D01*
X329575Y330850D02*
Y337150D01*
X391350Y423575D02*
X397650D01*
X391350Y420425D02*
X397650D01*
X391350D02*
Y423575D01*
X397650Y420425D02*
Y423575D01*
X376850D02*
X383150D01*
X376850Y420425D02*
X383150D01*
X376850D02*
Y423575D01*
X383150Y420425D02*
Y423575D01*
X362102D02*
X368402D01*
X362102Y420425D02*
X368402D01*
X362102D02*
Y423575D01*
X368402Y420425D02*
Y423575D01*
X332350D02*
X338650D01*
X332350Y420425D02*
X338650D01*
X332350D02*
Y423575D01*
X338650Y420425D02*
Y423575D01*
X287221Y322220D02*
X314779D01*
X287221Y349780D02*
X314779D01*
Y322220D02*
Y349780D01*
X287221Y322220D02*
Y349780D01*
X383602Y260925D02*
X389902D01*
X383602Y264075D02*
X389902D01*
Y260925D02*
Y264075D01*
X383602Y260925D02*
Y264075D01*
X353150Y420425D02*
Y423575D01*
X346850Y420425D02*
Y423575D01*
Y420425D02*
X353150D01*
X346850Y423575D02*
X353150D01*
X293201Y430150D02*
X305799D01*
X293201Y423850D02*
X305799D01*
X293201D02*
Y430150D01*
X305799Y423850D02*
Y430150D01*
X293201Y434350D02*
X305799D01*
X293201Y440650D02*
X305799D01*
Y434350D02*
Y440650D01*
X293201Y434350D02*
Y440650D01*
X293201Y451150D02*
X305799D01*
X293201Y444850D02*
X305799D01*
X293201D02*
Y451150D01*
X305799Y444850D02*
Y451150D01*
X293201Y455350D02*
X305799D01*
X293201Y461650D02*
X305799D01*
Y455350D02*
Y461650D01*
X293201Y455350D02*
Y461650D01*
X326563Y376138D02*
X334437D01*
X326563Y380862D02*
X334437D01*
Y376138D02*
Y380862D01*
X326563Y376138D02*
Y380862D01*
X266563Y368138D02*
X274437D01*
X266563Y372862D02*
X274437D01*
Y368138D02*
Y372862D01*
X266563Y368138D02*
Y372862D01*
X371850Y264075D02*
X378150D01*
X371850Y260925D02*
X378150D01*
X371850D02*
Y264075D01*
X378150Y260925D02*
Y264075D01*
X319850Y263925D02*
X326150D01*
X319850Y267075D02*
X326150D01*
Y263925D02*
Y267075D01*
X319850Y263925D02*
Y267075D01*
X397063Y350862D02*
X404937D01*
X397063Y346138D02*
X404937D01*
X397063D02*
Y350862D01*
X404937Y346138D02*
Y350862D01*
Y367638D02*
Y372362D01*
X397063Y367638D02*
Y372362D01*
Y367638D02*
X404937D01*
X397063Y372362D02*
X404937D01*
X476138Y399937D02*
X480862D01*
X476138Y392063D02*
X480862D01*
Y399937D01*
X476138Y392063D02*
Y399937D01*
X296138Y289063D02*
Y296937D01*
X300862Y289063D02*
Y296937D01*
X296138Y289063D02*
X300862D01*
X296138Y296937D02*
X300862D01*
X303138Y289063D02*
Y296937D01*
X307862Y289063D02*
Y296937D01*
X303138Y289063D02*
X307862D01*
X303138Y296937D02*
X307862D01*
X352063Y402638D02*
X359937D01*
X352063Y407362D02*
X359937D01*
Y402638D02*
Y407362D01*
X352063Y402638D02*
Y407362D01*
X315638Y289063D02*
Y296937D01*
X320362Y289063D02*
Y296937D01*
X315638Y289063D02*
X320362D01*
X315638Y296937D02*
X320362D01*
X283638Y289063D02*
Y296937D01*
X288362Y289063D02*
Y296937D01*
X283638Y289063D02*
X288362D01*
X283638Y296937D02*
X288362D01*
X307563Y361138D02*
X315437D01*
X307563Y365862D02*
X315437D01*
Y361138D02*
Y365862D01*
X307563Y361138D02*
Y365862D01*
X289563Y361138D02*
X297437D01*
X289563Y365862D02*
X297437D01*
Y361138D02*
Y365862D01*
X289563Y361138D02*
Y365862D01*
X266563Y376638D02*
X274437D01*
X266563Y381362D02*
X274437D01*
Y376638D02*
Y381362D01*
X266563Y376638D02*
Y381362D01*
D16*
X356972Y444721D02*
Y474642D01*
X396342D01*
Y444721D02*
Y474642D01*
X356972Y444721D02*
X396342D01*
X309972D02*
X349342D01*
Y474642D01*
X309972D02*
X349342D01*
X309972Y444721D02*
Y474642D01*
D73*
X427800Y428000D02*
X427247Y428761D01*
X426353Y428470D01*
Y427530D01*
X427247Y427239D01*
X427800Y428000D01*
D74*
X425000Y420650D02*
X466000D01*
Y438750D01*
X425000D02*
X466000D01*
X425000Y420650D02*
Y438750D01*
X385757Y407115D02*
Y411815D01*
X397157Y407115D02*
Y411815D01*
X385757Y405715D02*
X397157D01*
Y413215D01*
X385757D02*
X397157D01*
X385757Y405715D02*
Y413215D01*
M02*
