G04*
G04 #@! TF.GenerationSoftware,Altium Limited,Altium Designer,21.6.4 (81)*
G04*
G04 Layer_Color=65535*
%FSLAX25Y25*%
%MOIN*%
G70*
G04*
G04 #@! TF.SameCoordinates,8AD03C7C-95CA-41BD-B497-73EC2F137F48*
G04*
G04*
G04 #@! TF.FilePolarity,Positive*
G04*
G01*
G75*
%ADD10C,0.01000*%
%ADD11C,0.00600*%
%ADD12C,0.00984*%
%ADD13C,0.01000*%
%ADD14C,0.00787*%
%ADD15C,0.00394*%
%ADD16C,0.00800*%
%ADD17C,0.00500*%
%ADD18C,0.00700*%
G36*
X427292Y267535D02*
X427451D01*
Y267456D01*
Y267377D01*
X427372D01*
Y267297D01*
Y267218D01*
Y267139D01*
X427292D01*
Y267059D01*
Y266980D01*
X427213D01*
Y266901D01*
Y266821D01*
Y266742D01*
X427134D01*
Y266663D01*
Y266583D01*
X427054D01*
Y266504D01*
Y266425D01*
X426975D01*
Y266346D01*
Y266266D01*
Y266187D01*
X426896D01*
Y266108D01*
Y266028D01*
X426816D01*
Y265949D01*
X426737D01*
Y265869D01*
Y265790D01*
X426658D01*
Y265711D01*
Y265632D01*
X426579D01*
Y265552D01*
X426499D01*
Y265473D01*
X426420D01*
Y265394D01*
X426340D01*
Y265314D01*
X426261D01*
Y265235D01*
X426023D01*
Y265156D01*
X425230D01*
Y265235D01*
X425071D01*
Y265314D01*
X424913D01*
Y265394D01*
X424833D01*
Y265473D01*
X424754D01*
Y265552D01*
X424675D01*
Y265632D01*
X424595D01*
Y265711D01*
Y265790D01*
X424516D01*
Y265869D01*
Y265949D01*
Y266028D01*
X424437D01*
Y266108D01*
Y266187D01*
Y266266D01*
Y266346D01*
Y266425D01*
Y266504D01*
Y266583D01*
X424516D01*
Y266663D01*
Y266742D01*
Y266821D01*
X424595D01*
Y266901D01*
Y266980D01*
X424675D01*
Y267059D01*
Y267139D01*
X424754D01*
Y267218D01*
X424833D01*
Y267297D01*
X424992D01*
Y267377D01*
X425071D01*
Y267456D01*
X425389D01*
Y267535D01*
X426103D01*
Y267615D01*
X427292D01*
Y267535D01*
D02*
G37*
G36*
X475359Y265473D02*
X475676D01*
Y265394D01*
X475914D01*
Y265314D01*
X476073D01*
Y265235D01*
X476232D01*
Y265156D01*
X476390D01*
Y265076D01*
X476470D01*
Y264997D01*
X476628D01*
Y264918D01*
X476708D01*
Y264838D01*
X476787D01*
Y264759D01*
X476866D01*
Y264680D01*
X476946D01*
Y264600D01*
X477025D01*
Y264521D01*
X477104D01*
Y264442D01*
X477184D01*
Y264363D01*
Y264283D01*
X477263D01*
Y264204D01*
Y264124D01*
X477342D01*
Y264045D01*
Y263966D01*
X477422D01*
Y263887D01*
Y263807D01*
X477501D01*
Y263728D01*
Y263649D01*
Y263569D01*
X477580D01*
Y263490D01*
Y263411D01*
Y263331D01*
Y263252D01*
Y263173D01*
Y263093D01*
X477660D01*
Y263014D01*
Y262935D01*
Y262856D01*
Y262776D01*
Y262697D01*
Y262617D01*
Y262538D01*
Y262459D01*
Y262380D01*
X477580D01*
Y262300D01*
Y262221D01*
Y262142D01*
Y262062D01*
Y261983D01*
Y261904D01*
X477501D01*
Y261824D01*
Y261745D01*
Y261666D01*
Y261586D01*
X477422D01*
Y261507D01*
Y261428D01*
Y261348D01*
X477342D01*
Y261269D01*
Y261190D01*
X477263D01*
Y261110D01*
Y261031D01*
Y260952D01*
X477184D01*
Y260873D01*
X477104D01*
Y260793D01*
Y260714D01*
X477025D01*
Y260634D01*
Y260555D01*
X476946D01*
Y260476D01*
X476866D01*
Y260397D01*
X476787D01*
Y260317D01*
Y260238D01*
X476708D01*
Y260159D01*
X476628D01*
Y260079D01*
X476549D01*
Y260000D01*
X476470D01*
Y259921D01*
X476390D01*
Y259841D01*
X476311D01*
Y259762D01*
X476152D01*
Y259683D01*
X476073D01*
Y259603D01*
X475914D01*
Y259524D01*
X475835D01*
Y259445D01*
X475676D01*
Y259366D01*
X475518D01*
Y259286D01*
X475280D01*
Y259207D01*
X475042D01*
Y259127D01*
X474725D01*
Y259048D01*
X473297D01*
Y259127D01*
X472900D01*
Y259207D01*
X472742D01*
Y259286D01*
X472504D01*
Y259366D01*
X472345D01*
Y259445D01*
X472266D01*
Y259524D01*
X472107D01*
Y259603D01*
X472028D01*
Y259683D01*
X471869D01*
Y259762D01*
X471790D01*
Y259841D01*
X471711D01*
Y259921D01*
X471631D01*
Y260000D01*
Y260079D01*
Y260159D01*
X471711D01*
Y260238D01*
Y260317D01*
X471790D01*
Y260397D01*
Y260476D01*
Y260555D01*
X471869D01*
Y260634D01*
Y260714D01*
Y260793D01*
Y260873D01*
X471948D01*
Y260952D01*
Y261031D01*
Y261110D01*
Y261190D01*
Y261269D01*
X471790D01*
Y261190D01*
X471711D01*
Y261110D01*
Y261031D01*
X471631D01*
Y260952D01*
Y260873D01*
X471552D01*
Y260793D01*
Y260714D01*
X471473D01*
Y260634D01*
X471393D01*
Y260555D01*
Y260476D01*
X471314D01*
Y260397D01*
X471235D01*
Y260317D01*
X471155D01*
Y260238D01*
Y260159D01*
X471076D01*
Y260079D01*
X470997D01*
Y260000D01*
X470917D01*
Y259921D01*
X470838D01*
Y259841D01*
X470680D01*
Y259762D01*
X470600D01*
Y259683D01*
X470521D01*
Y259603D01*
X470362D01*
Y259524D01*
X470203D01*
Y259445D01*
X470124D01*
Y259366D01*
X469966D01*
Y259286D01*
X469728D01*
Y259207D01*
X469490D01*
Y259127D01*
X469172D01*
Y259048D01*
X467665D01*
Y259127D01*
X467348D01*
Y259207D01*
X467190D01*
Y259286D01*
X466952D01*
Y259366D01*
X466793D01*
Y259445D01*
X466634D01*
Y259524D01*
X466555D01*
Y259603D01*
X466396D01*
Y259683D01*
X466317D01*
Y259762D01*
X466238D01*
Y259841D01*
X466158D01*
Y259921D01*
X466079D01*
Y260000D01*
X466000D01*
Y260079D01*
X465920D01*
Y260159D01*
Y260238D01*
X465841D01*
Y260317D01*
Y260397D01*
X465762D01*
Y260476D01*
Y260555D01*
X465682D01*
Y260634D01*
Y260714D01*
X465603D01*
Y260793D01*
Y260873D01*
X465524D01*
Y260952D01*
Y261031D01*
Y261110D01*
Y261190D01*
X465445D01*
Y261269D01*
Y261348D01*
Y261428D01*
Y261507D01*
Y261586D01*
Y261666D01*
Y261745D01*
Y261824D01*
Y261904D01*
Y261983D01*
Y262062D01*
Y262142D01*
Y262221D01*
Y262300D01*
Y262380D01*
Y262459D01*
Y262538D01*
X465524D01*
Y262617D01*
Y262697D01*
Y262776D01*
Y262856D01*
X465603D01*
Y262935D01*
Y263014D01*
Y263093D01*
X465682D01*
Y263173D01*
Y263252D01*
Y263331D01*
X465762D01*
Y263411D01*
Y263490D01*
X465841D01*
Y263569D01*
Y263649D01*
X465920D01*
Y263728D01*
Y263807D01*
X466000D01*
Y263887D01*
Y263966D01*
X466079D01*
Y264045D01*
X466158D01*
Y264124D01*
Y264204D01*
X466238D01*
Y264283D01*
X466317D01*
Y264363D01*
X466396D01*
Y264442D01*
X466476D01*
Y264521D01*
X466555D01*
Y264600D01*
X466634D01*
Y264680D01*
X466714D01*
Y264759D01*
X466793D01*
Y264838D01*
X466872D01*
Y264918D01*
X467031D01*
Y264997D01*
X467110D01*
Y265076D01*
X467269D01*
Y265156D01*
X467427D01*
Y265235D01*
X467586D01*
Y265314D01*
X467824D01*
Y265394D01*
X468062D01*
Y265473D01*
X468379D01*
Y265552D01*
X469648D01*
Y265473D01*
X470045D01*
Y265394D01*
X470283D01*
Y265314D01*
X470521D01*
Y265235D01*
X470680D01*
Y265156D01*
X470838D01*
Y265076D01*
X470917D01*
Y264997D01*
X471076D01*
Y264918D01*
X471155D01*
Y264838D01*
X471235D01*
Y264759D01*
X471314D01*
Y264680D01*
X471393D01*
Y264600D01*
Y264521D01*
Y264442D01*
Y264363D01*
X471314D01*
Y264283D01*
Y264204D01*
X471235D01*
Y264124D01*
Y264045D01*
Y263966D01*
Y263887D01*
X471155D01*
Y263807D01*
Y263728D01*
Y263649D01*
Y263569D01*
Y263490D01*
Y263411D01*
Y263331D01*
X471314D01*
Y263411D01*
Y263490D01*
X471393D01*
Y263569D01*
Y263649D01*
X471473D01*
Y263728D01*
Y263807D01*
X471552D01*
Y263887D01*
Y263966D01*
X471631D01*
Y264045D01*
X471711D01*
Y264124D01*
Y264204D01*
X471790D01*
Y264283D01*
X471869D01*
Y264363D01*
X471948D01*
Y264442D01*
X472028D01*
Y264521D01*
X472107D01*
Y264600D01*
X472187D01*
Y264680D01*
X472266D01*
Y264759D01*
X472345D01*
Y264838D01*
X472425D01*
Y264918D01*
X472583D01*
Y264997D01*
X472662D01*
Y265076D01*
X472821D01*
Y265156D01*
X472980D01*
Y265235D01*
X473138D01*
Y265314D01*
X473376D01*
Y265394D01*
X473614D01*
Y265473D01*
X473932D01*
Y265552D01*
X475359D01*
Y265473D01*
D02*
G37*
G36*
X482419Y265394D02*
X482736D01*
Y265314D01*
X482895D01*
Y265235D01*
X483053D01*
Y265156D01*
X483132D01*
Y265076D01*
X483291D01*
Y264997D01*
X483370D01*
Y264918D01*
X483450D01*
Y264838D01*
X483529D01*
Y264759D01*
Y264680D01*
X483608D01*
Y264600D01*
Y264521D01*
X483688D01*
Y264442D01*
Y264363D01*
X483767D01*
Y264283D01*
Y264204D01*
Y264124D01*
Y264045D01*
Y263966D01*
Y263887D01*
Y263807D01*
Y263728D01*
Y263649D01*
Y263569D01*
Y263490D01*
Y263411D01*
Y263331D01*
Y263252D01*
Y263173D01*
X483688D01*
Y263093D01*
Y263014D01*
Y262935D01*
X483608D01*
Y262856D01*
Y262776D01*
X483529D01*
Y262697D01*
Y262617D01*
X483450D01*
Y262538D01*
Y262459D01*
X483370D01*
Y262380D01*
X483291D01*
Y262300D01*
X483212D01*
Y262221D01*
X483132D01*
Y262142D01*
X483053D01*
Y262062D01*
X482974D01*
Y261983D01*
X482815D01*
Y261904D01*
X482736D01*
Y261824D01*
X482577D01*
Y261745D01*
X482339D01*
Y261666D01*
X482101D01*
Y261586D01*
X481308D01*
Y261507D01*
X479563D01*
Y261428D01*
Y261348D01*
Y261269D01*
Y261190D01*
X479484D01*
Y261110D01*
Y261031D01*
Y260952D01*
Y260873D01*
Y260793D01*
X479404D01*
Y260714D01*
Y260634D01*
Y260555D01*
Y260476D01*
X479325D01*
Y260397D01*
Y260317D01*
Y260238D01*
Y260159D01*
X479246D01*
Y260079D01*
Y260000D01*
Y259921D01*
X479167D01*
Y259841D01*
Y259762D01*
X479087D01*
Y259683D01*
X479008D01*
Y259603D01*
X478929D01*
Y259524D01*
X478849D01*
Y259445D01*
X478770D01*
Y259366D01*
X478691D01*
Y259286D01*
X478532D01*
Y259207D01*
X478294D01*
Y259127D01*
X477977D01*
Y259207D01*
X478056D01*
Y259286D01*
Y259366D01*
Y259445D01*
X478135D01*
Y259524D01*
Y259603D01*
Y259683D01*
Y259762D01*
Y259841D01*
X478215D01*
Y259921D01*
Y260000D01*
Y260079D01*
Y260159D01*
X478294D01*
Y260238D01*
Y260317D01*
Y260397D01*
Y260476D01*
X478373D01*
Y260555D01*
Y260634D01*
Y260714D01*
Y260793D01*
Y260873D01*
X478453D01*
Y260952D01*
Y261031D01*
Y261110D01*
Y261190D01*
X478532D01*
Y261269D01*
Y261348D01*
Y261428D01*
Y261507D01*
Y261586D01*
X478611D01*
Y261666D01*
Y261745D01*
Y261824D01*
Y261904D01*
X478691D01*
Y261983D01*
Y262062D01*
Y262142D01*
Y262221D01*
X478770D01*
Y262300D01*
Y262380D01*
Y262459D01*
Y262538D01*
Y262617D01*
X478849D01*
Y262697D01*
Y262776D01*
Y262856D01*
Y262935D01*
X478929D01*
Y263014D01*
Y263093D01*
Y263173D01*
Y263252D01*
Y263331D01*
X479008D01*
Y263411D01*
Y263490D01*
Y263569D01*
Y263649D01*
X479087D01*
Y263728D01*
Y263807D01*
Y263887D01*
Y263966D01*
X479167D01*
Y264045D01*
Y264124D01*
Y264204D01*
Y264283D01*
Y264363D01*
X479246D01*
Y264442D01*
Y264521D01*
Y264600D01*
Y264680D01*
Y264759D01*
X479325D01*
Y264838D01*
X479404D01*
Y264918D01*
Y264997D01*
X479484D01*
Y265076D01*
X479563D01*
Y265156D01*
X479642D01*
Y265235D01*
X479801D01*
Y265314D01*
X479960D01*
Y265394D01*
X480198D01*
Y265473D01*
X482419D01*
Y265394D01*
D02*
G37*
G36*
X462827D02*
Y265314D01*
Y265235D01*
Y265156D01*
X462748D01*
Y265076D01*
Y264997D01*
Y264918D01*
Y264838D01*
Y264759D01*
X462668D01*
Y264680D01*
Y264600D01*
Y264521D01*
Y264442D01*
Y264363D01*
X462589D01*
Y264283D01*
Y264204D01*
Y264124D01*
Y264045D01*
X462510D01*
Y263966D01*
Y263887D01*
Y263807D01*
Y263728D01*
Y263649D01*
X462430D01*
Y263569D01*
Y263490D01*
Y263411D01*
Y263331D01*
Y263252D01*
X462351D01*
Y263173D01*
Y263093D01*
Y263014D01*
Y262935D01*
X462272D01*
Y262856D01*
Y262776D01*
Y262697D01*
Y262617D01*
Y262538D01*
X462192D01*
Y262459D01*
Y262380D01*
Y262300D01*
Y262221D01*
X462113D01*
Y262142D01*
Y262062D01*
Y261983D01*
Y261904D01*
Y261824D01*
X462034D01*
Y261745D01*
Y261666D01*
Y261586D01*
Y261507D01*
Y261428D01*
X461954D01*
Y261348D01*
Y261269D01*
Y261190D01*
Y261110D01*
X461875D01*
Y261031D01*
Y260952D01*
Y260873D01*
Y260793D01*
Y260714D01*
X461796D01*
Y260634D01*
Y260555D01*
Y260476D01*
Y260397D01*
X461717D01*
Y260317D01*
Y260238D01*
Y260159D01*
Y260079D01*
Y260000D01*
X464413D01*
Y260079D01*
X464493D01*
Y260000D01*
Y259921D01*
X464413D01*
Y259841D01*
Y259762D01*
X464334D01*
Y259683D01*
Y259603D01*
X464255D01*
Y259524D01*
X464175D01*
Y259445D01*
X464096D01*
Y259366D01*
X464017D01*
Y259286D01*
X463858D01*
Y259207D01*
X463620D01*
Y259127D01*
X460447D01*
Y259207D01*
Y259286D01*
Y259366D01*
X460527D01*
Y259445D01*
Y259524D01*
Y259603D01*
Y259683D01*
Y259762D01*
X460606D01*
Y259841D01*
Y259921D01*
Y260000D01*
Y260079D01*
Y260159D01*
X460685D01*
Y260238D01*
Y260317D01*
Y260397D01*
Y260476D01*
X460765D01*
Y260555D01*
Y260634D01*
Y260714D01*
Y260793D01*
Y260873D01*
X460844D01*
Y260952D01*
Y261031D01*
Y261110D01*
Y261190D01*
X460923D01*
Y261269D01*
Y261348D01*
Y261428D01*
Y261507D01*
Y261586D01*
X461003D01*
Y261666D01*
Y261745D01*
Y261824D01*
Y261904D01*
X461082D01*
Y261983D01*
Y262062D01*
Y262142D01*
Y262221D01*
Y262300D01*
X461161D01*
Y262380D01*
Y262459D01*
Y262538D01*
Y262617D01*
X461241D01*
Y262697D01*
Y262776D01*
Y262856D01*
Y262935D01*
X461320D01*
Y263014D01*
Y263093D01*
Y263173D01*
Y263252D01*
Y263331D01*
X461399D01*
Y263411D01*
Y263490D01*
Y263569D01*
Y263649D01*
X461479D01*
Y263728D01*
Y263807D01*
Y263887D01*
Y263966D01*
X461558D01*
Y264045D01*
Y264124D01*
Y264204D01*
Y264283D01*
X461637D01*
Y264363D01*
Y264442D01*
Y264521D01*
Y264600D01*
Y264680D01*
X461717D01*
Y264759D01*
Y264838D01*
Y264918D01*
X461796D01*
Y264997D01*
X461875D01*
Y265076D01*
X461954D01*
Y265156D01*
X462034D01*
Y265235D01*
X462113D01*
Y265314D01*
X462272D01*
Y265394D01*
X462510D01*
Y265473D01*
X462827D01*
Y265394D01*
D02*
G37*
G36*
X458544D02*
X459020D01*
Y265314D01*
X459178D01*
Y265235D01*
X459337D01*
Y265156D01*
X459496D01*
Y265076D01*
X459575D01*
Y264997D01*
X459654D01*
Y264918D01*
X459733D01*
Y264838D01*
X459813D01*
Y264759D01*
X459892D01*
Y264680D01*
X459972D01*
Y264600D01*
Y264521D01*
X460051D01*
Y264442D01*
Y264363D01*
X460130D01*
Y264283D01*
Y264204D01*
Y264124D01*
Y264045D01*
X460210D01*
Y263966D01*
Y263887D01*
Y263807D01*
Y263728D01*
Y263649D01*
Y263569D01*
Y263490D01*
Y263411D01*
X460130D01*
Y263331D01*
Y263252D01*
Y263173D01*
Y263093D01*
X460051D01*
Y263014D01*
Y262935D01*
Y262856D01*
X459972D01*
Y262776D01*
Y262697D01*
X459892D01*
Y262617D01*
Y262538D01*
X459813D01*
Y262459D01*
X459733D01*
Y262380D01*
Y262300D01*
X459654D01*
Y262221D01*
X459575D01*
Y262142D01*
X459496D01*
Y262062D01*
X459337D01*
Y261983D01*
X459258D01*
Y261904D01*
X459099D01*
Y261824D01*
X458940D01*
Y261745D01*
X458782D01*
Y261666D01*
X458464D01*
Y261586D01*
X458306D01*
Y261507D01*
Y261428D01*
Y261348D01*
X458385D01*
Y261269D01*
Y261190D01*
X458464D01*
Y261110D01*
Y261031D01*
Y260952D01*
X458544D01*
Y260873D01*
Y260793D01*
X458623D01*
Y260714D01*
Y260634D01*
Y260555D01*
X458702D01*
Y260476D01*
Y260397D01*
X458782D01*
Y260317D01*
Y260238D01*
Y260159D01*
X458861D01*
Y260079D01*
Y260000D01*
Y259921D01*
Y259841D01*
Y259762D01*
Y259683D01*
X458782D01*
Y259603D01*
Y259524D01*
X458702D01*
Y259445D01*
Y259366D01*
X458623D01*
Y259286D01*
X458464D01*
Y259207D01*
X458306D01*
Y259127D01*
X458068D01*
Y259207D01*
Y259286D01*
X457989D01*
Y259366D01*
Y259445D01*
X457909D01*
Y259524D01*
Y259603D01*
Y259683D01*
X457830D01*
Y259762D01*
Y259841D01*
Y259921D01*
X457751D01*
Y260000D01*
Y260079D01*
X457671D01*
Y260159D01*
Y260238D01*
Y260317D01*
X457592D01*
Y260397D01*
Y260476D01*
Y260555D01*
X457513D01*
Y260634D01*
Y260714D01*
Y260793D01*
X457433D01*
Y260873D01*
Y260952D01*
X457354D01*
Y261031D01*
Y261110D01*
Y261190D01*
X457275D01*
Y261269D01*
Y261348D01*
Y261428D01*
X457195D01*
Y261507D01*
X455926D01*
Y261428D01*
Y261348D01*
Y261269D01*
Y261190D01*
X455847D01*
Y261110D01*
Y261031D01*
Y260952D01*
Y260873D01*
X455768D01*
Y260793D01*
Y260714D01*
Y260634D01*
Y260555D01*
Y260476D01*
X455688D01*
Y260397D01*
Y260317D01*
Y260238D01*
Y260159D01*
Y260079D01*
X455609D01*
Y260000D01*
Y259921D01*
Y259841D01*
Y259762D01*
X455530D01*
Y259683D01*
Y259603D01*
Y259524D01*
X455450D01*
Y259445D01*
X455371D01*
Y259366D01*
X455292D01*
Y259286D01*
X455212D01*
Y259207D01*
X455054D01*
Y259127D01*
X454419D01*
Y259207D01*
Y259286D01*
Y259366D01*
Y259445D01*
X454498D01*
Y259524D01*
Y259603D01*
Y259683D01*
Y259762D01*
X454578D01*
Y259841D01*
Y259921D01*
Y260000D01*
Y260079D01*
Y260159D01*
X454657D01*
Y260238D01*
Y260317D01*
Y260397D01*
Y260476D01*
X454737D01*
Y260555D01*
Y260634D01*
Y260714D01*
Y260793D01*
Y260873D01*
X454816D01*
Y260952D01*
Y261031D01*
Y261110D01*
Y261190D01*
Y261269D01*
X454895D01*
Y261348D01*
Y261428D01*
Y261507D01*
Y261586D01*
X454974D01*
Y261666D01*
Y261745D01*
Y261824D01*
Y261904D01*
Y261983D01*
X455054D01*
Y262062D01*
Y262142D01*
Y262221D01*
Y262300D01*
X455133D01*
Y262380D01*
Y262459D01*
Y262538D01*
Y262617D01*
Y262697D01*
X455212D01*
Y262776D01*
Y262856D01*
Y262935D01*
Y263014D01*
X455292D01*
Y263093D01*
Y263173D01*
Y263252D01*
Y263331D01*
Y263411D01*
X455371D01*
Y263490D01*
Y263569D01*
Y263649D01*
Y263728D01*
X455450D01*
Y263807D01*
Y263887D01*
Y263966D01*
Y264045D01*
X455530D01*
Y264124D01*
Y264204D01*
Y264283D01*
Y264363D01*
Y264442D01*
X455609D01*
Y264521D01*
Y264600D01*
Y264680D01*
Y264759D01*
X455688D01*
Y264838D01*
Y264918D01*
Y264997D01*
X455768D01*
Y265076D01*
Y265156D01*
X455847D01*
Y265235D01*
X455926D01*
Y265314D01*
X456006D01*
Y265394D01*
X456323D01*
Y265473D01*
X458544D01*
Y265394D01*
D02*
G37*
G36*
X454578D02*
X454498D01*
Y265314D01*
Y265235D01*
X454419D01*
Y265156D01*
Y265076D01*
X454340D01*
Y264997D01*
X454261D01*
Y264918D01*
X454181D01*
Y264838D01*
X454102D01*
Y264759D01*
X454023D01*
Y264680D01*
X453864D01*
Y264600D01*
X453309D01*
Y264521D01*
X451088D01*
Y264442D01*
Y264363D01*
X451009D01*
Y264283D01*
Y264204D01*
Y264124D01*
Y264045D01*
Y263966D01*
X450929D01*
Y263887D01*
Y263807D01*
Y263728D01*
Y263649D01*
X450850D01*
Y263569D01*
Y263490D01*
Y263411D01*
Y263331D01*
Y263252D01*
X450771D01*
Y263173D01*
Y263093D01*
Y263014D01*
X450691D01*
Y262935D01*
Y262856D01*
X450850D01*
Y262776D01*
X453864D01*
Y262697D01*
Y262617D01*
X453785D01*
Y262538D01*
Y262459D01*
X453705D01*
Y262380D01*
X453626D01*
Y262300D01*
Y262221D01*
X453547D01*
Y262142D01*
X453388D01*
Y262062D01*
X453309D01*
Y261983D01*
X453071D01*
Y261904D01*
X450612D01*
Y261824D01*
X450453D01*
Y261745D01*
Y261666D01*
Y261586D01*
Y261507D01*
Y261428D01*
X450374D01*
Y261348D01*
Y261269D01*
Y261190D01*
Y261110D01*
X450295D01*
Y261031D01*
Y260952D01*
Y260873D01*
Y260793D01*
X450215D01*
Y260714D01*
Y260634D01*
Y260555D01*
Y260476D01*
Y260397D01*
X450136D01*
Y260317D01*
Y260238D01*
Y260159D01*
Y260079D01*
X450771D01*
Y260000D01*
X453229D01*
Y260079D01*
X453309D01*
Y260000D01*
Y259921D01*
Y259841D01*
X453229D01*
Y259762D01*
Y259683D01*
X453150D01*
Y259603D01*
X453071D01*
Y259524D01*
X452991D01*
Y259445D01*
X452912D01*
Y259366D01*
X452833D01*
Y259286D01*
X452753D01*
Y259207D01*
X452516D01*
Y259127D01*
X448867D01*
Y259207D01*
Y259286D01*
Y259366D01*
X448946D01*
Y259445D01*
Y259524D01*
Y259603D01*
Y259683D01*
Y259762D01*
X449026D01*
Y259841D01*
Y259921D01*
Y260000D01*
Y260079D01*
X449105D01*
Y260159D01*
Y260238D01*
Y260317D01*
Y260397D01*
Y260476D01*
X449184D01*
Y260555D01*
Y260634D01*
Y260714D01*
Y260793D01*
X449263D01*
Y260873D01*
Y260952D01*
Y261031D01*
Y261110D01*
Y261190D01*
X449343D01*
Y261269D01*
Y261348D01*
Y261428D01*
Y261507D01*
Y261586D01*
X449422D01*
Y261666D01*
Y261745D01*
Y261824D01*
Y261904D01*
X449502D01*
Y261983D01*
Y262062D01*
Y262142D01*
Y262221D01*
Y262300D01*
X449581D01*
Y262380D01*
Y262459D01*
Y262538D01*
Y262617D01*
X449660D01*
Y262697D01*
Y262776D01*
Y262856D01*
Y262935D01*
Y263014D01*
X449739D01*
Y263093D01*
Y263173D01*
Y263252D01*
Y263331D01*
Y263411D01*
X449819D01*
Y263490D01*
Y263569D01*
Y263649D01*
Y263728D01*
X449898D01*
Y263807D01*
Y263887D01*
Y263966D01*
Y264045D01*
X449977D01*
Y264124D01*
Y264204D01*
Y264283D01*
Y264363D01*
Y264442D01*
X450057D01*
Y264521D01*
Y264600D01*
Y264680D01*
X450136D01*
Y264759D01*
Y264838D01*
Y264918D01*
X450215D01*
Y264997D01*
X450295D01*
Y265076D01*
X450374D01*
Y265156D01*
X450453D01*
Y265235D01*
X450533D01*
Y265314D01*
X450691D01*
Y265394D01*
X451009D01*
Y265473D01*
X454578D01*
Y265394D01*
D02*
G37*
G36*
X449263D02*
X449184D01*
Y265314D01*
X449105D01*
Y265235D01*
Y265156D01*
X449026D01*
Y265076D01*
Y264997D01*
X448946D01*
Y264918D01*
X448867D01*
Y264838D01*
X448788D01*
Y264759D01*
X448629D01*
Y264680D01*
X448470D01*
Y264600D01*
X448232D01*
Y264521D01*
X447043D01*
Y264442D01*
Y264363D01*
Y264283D01*
Y264204D01*
X446963D01*
Y264124D01*
Y264045D01*
Y263966D01*
Y263887D01*
X446884D01*
Y263807D01*
Y263728D01*
Y263649D01*
Y263569D01*
Y263490D01*
X446805D01*
Y263411D01*
Y263331D01*
Y263252D01*
Y263173D01*
Y263093D01*
X446725D01*
Y263014D01*
Y262935D01*
Y262856D01*
Y262776D01*
X446646D01*
Y262697D01*
Y262617D01*
Y262538D01*
Y262459D01*
Y262380D01*
X446567D01*
Y262300D01*
Y262221D01*
Y262142D01*
Y262062D01*
X446487D01*
Y261983D01*
Y261904D01*
Y261824D01*
Y261745D01*
Y261666D01*
X446408D01*
Y261586D01*
Y261507D01*
Y261428D01*
Y261348D01*
X446329D01*
Y261269D01*
Y261190D01*
Y261110D01*
Y261031D01*
Y260952D01*
X446249D01*
Y260873D01*
Y260793D01*
Y260714D01*
Y260634D01*
X446170D01*
Y260555D01*
Y260476D01*
Y260397D01*
Y260317D01*
X446091D01*
Y260238D01*
Y260159D01*
Y260079D01*
Y260000D01*
X446011D01*
Y259921D01*
Y259841D01*
Y259762D01*
X445932D01*
Y259683D01*
Y259603D01*
X445853D01*
Y259524D01*
X445774D01*
Y259445D01*
X445694D01*
Y259366D01*
X445536D01*
Y259286D01*
X445456D01*
Y259207D01*
X445218D01*
Y259127D01*
X444822D01*
Y259207D01*
Y259286D01*
X444901D01*
Y259366D01*
Y259445D01*
Y259524D01*
Y259603D01*
Y259683D01*
X444980D01*
Y259762D01*
Y259841D01*
Y259921D01*
Y260000D01*
X445060D01*
Y260079D01*
Y260159D01*
Y260238D01*
Y260317D01*
Y260397D01*
X445139D01*
Y260476D01*
Y260555D01*
Y260634D01*
Y260714D01*
X445218D01*
Y260793D01*
Y260873D01*
Y260952D01*
Y261031D01*
Y261110D01*
X445298D01*
Y261190D01*
Y261269D01*
Y261348D01*
Y261428D01*
X445377D01*
Y261507D01*
Y261586D01*
Y261666D01*
Y261745D01*
Y261824D01*
X445456D01*
Y261904D01*
Y261983D01*
Y262062D01*
Y262142D01*
Y262221D01*
X445536D01*
Y262300D01*
Y262380D01*
Y262459D01*
Y262538D01*
X445615D01*
Y262617D01*
Y262697D01*
Y262776D01*
Y262856D01*
Y262935D01*
X445694D01*
Y263014D01*
Y263093D01*
Y263173D01*
Y263252D01*
X445774D01*
Y263331D01*
Y263411D01*
Y263490D01*
Y263569D01*
Y263649D01*
X445853D01*
Y263728D01*
Y263807D01*
Y263887D01*
Y263966D01*
X445932D01*
Y264045D01*
Y264124D01*
Y264204D01*
Y264283D01*
Y264363D01*
X446011D01*
Y264442D01*
Y264521D01*
X444108D01*
Y264600D01*
Y264680D01*
X444187D01*
Y264759D01*
Y264838D01*
X444267D01*
Y264918D01*
Y264997D01*
X444346D01*
Y265076D01*
X444425D01*
Y265156D01*
X444504D01*
Y265235D01*
X444584D01*
Y265314D01*
X444742D01*
Y265394D01*
X445218D01*
Y265473D01*
X449263D01*
Y265394D01*
D02*
G37*
G36*
X442046D02*
Y265314D01*
Y265235D01*
Y265156D01*
X442125D01*
Y265076D01*
Y264997D01*
Y264918D01*
Y264838D01*
Y264759D01*
Y264680D01*
X442204D01*
Y264600D01*
Y264521D01*
Y264442D01*
Y264363D01*
Y264283D01*
X442283D01*
Y264204D01*
Y264124D01*
Y264045D01*
Y263966D01*
Y263887D01*
Y263807D01*
X442363D01*
Y263728D01*
Y263649D01*
Y263569D01*
Y263490D01*
Y263411D01*
Y263331D01*
X442442D01*
Y263252D01*
Y263173D01*
Y263093D01*
Y263014D01*
Y262935D01*
X442521D01*
Y262856D01*
Y262776D01*
Y262697D01*
Y262617D01*
Y262538D01*
Y262459D01*
X442601D01*
Y262380D01*
Y262300D01*
Y262221D01*
Y262142D01*
Y262062D01*
Y261983D01*
X442680D01*
Y261904D01*
Y261824D01*
Y261745D01*
Y261666D01*
Y261586D01*
Y261507D01*
X442759D01*
Y261428D01*
Y261348D01*
Y261269D01*
Y261190D01*
Y261110D01*
Y261031D01*
X442839D01*
Y260952D01*
Y260873D01*
Y260793D01*
Y260714D01*
Y260634D01*
Y260555D01*
X442918D01*
Y260476D01*
Y260397D01*
Y260317D01*
Y260238D01*
Y260159D01*
Y260079D01*
Y260000D01*
Y259921D01*
Y259841D01*
Y259762D01*
Y259683D01*
X442839D01*
Y259603D01*
Y259524D01*
X442759D01*
Y259445D01*
X442680D01*
Y259366D01*
X442601D01*
Y259286D01*
X442521D01*
Y259207D01*
X442283D01*
Y259127D01*
X442046D01*
Y259207D01*
Y259286D01*
Y259366D01*
X441966D01*
Y259445D01*
Y259524D01*
Y259603D01*
Y259683D01*
Y259762D01*
Y259841D01*
X441887D01*
Y259921D01*
Y260000D01*
Y260079D01*
Y260159D01*
Y260238D01*
Y260317D01*
X438714D01*
Y260238D01*
X438635D01*
Y260159D01*
Y260079D01*
X438556D01*
Y260000D01*
Y259921D01*
X438476D01*
Y259841D01*
X438397D01*
Y259762D01*
Y259683D01*
X438318D01*
Y259603D01*
X438238D01*
Y259524D01*
Y259445D01*
X438159D01*
Y259366D01*
X438080D01*
Y259286D01*
X438000D01*
Y259207D01*
X437842D01*
Y259127D01*
X436811D01*
Y259207D01*
X436890D01*
Y259286D01*
X436969D01*
Y259366D01*
Y259445D01*
X437048D01*
Y259524D01*
Y259603D01*
X437128D01*
Y259683D01*
X437207D01*
Y259762D01*
Y259841D01*
X437287D01*
Y259921D01*
X437366D01*
Y260000D01*
Y260079D01*
X437445D01*
Y260159D01*
Y260238D01*
X437524D01*
Y260317D01*
X437604D01*
Y260397D01*
Y260476D01*
X437683D01*
Y260555D01*
Y260634D01*
X437762D01*
Y260714D01*
X437842D01*
Y260793D01*
Y260873D01*
X437921D01*
Y260952D01*
Y261031D01*
X438000D01*
Y261110D01*
X438080D01*
Y261190D01*
Y261269D01*
X438159D01*
Y261348D01*
X438238D01*
Y261428D01*
Y261507D01*
X438318D01*
Y261586D01*
Y261666D01*
X438397D01*
Y261745D01*
X438476D01*
Y261824D01*
Y261904D01*
X438556D01*
Y261983D01*
Y262062D01*
X438635D01*
Y262142D01*
X438714D01*
Y262221D01*
Y262300D01*
X438794D01*
Y262380D01*
X438873D01*
Y262459D01*
Y262538D01*
X438952D01*
Y262617D01*
Y262697D01*
X439032D01*
Y262776D01*
X439111D01*
Y262856D01*
Y262935D01*
X439190D01*
Y263014D01*
Y263093D01*
X439269D01*
Y263173D01*
X439349D01*
Y263252D01*
Y263331D01*
X439428D01*
Y263411D01*
X439507D01*
Y263490D01*
Y263569D01*
X439587D01*
Y263649D01*
Y263728D01*
X439666D01*
Y263807D01*
X439745D01*
Y263887D01*
Y263966D01*
X439825D01*
Y264045D01*
Y264124D01*
X439904D01*
Y264204D01*
X439983D01*
Y264283D01*
Y264363D01*
X440063D01*
Y264442D01*
X440142D01*
Y264521D01*
Y264600D01*
X440221D01*
Y264680D01*
Y264759D01*
X440301D01*
Y264838D01*
X440380D01*
Y264918D01*
Y264997D01*
X440459D01*
Y265076D01*
Y265156D01*
X440539D01*
Y265235D01*
X440697D01*
Y265314D01*
X440776D01*
Y265394D01*
X441014D01*
Y265473D01*
X442046D01*
Y265394D01*
D02*
G37*
G36*
X438635Y267535D02*
Y267456D01*
X438556D01*
Y267377D01*
Y267297D01*
X438476D01*
Y267218D01*
X438397D01*
Y267139D01*
Y267059D01*
X438318D01*
Y266980D01*
Y266901D01*
X438238D01*
Y266821D01*
X438159D01*
Y266742D01*
Y266663D01*
X438080D01*
Y266583D01*
Y266504D01*
X438000D01*
Y266425D01*
X437921D01*
Y266346D01*
Y266266D01*
X437842D01*
Y266187D01*
Y266108D01*
X437762D01*
Y266028D01*
X437683D01*
Y265949D01*
Y265869D01*
X437604D01*
Y265790D01*
X437524D01*
Y265711D01*
Y265632D01*
X437445D01*
Y265552D01*
Y265473D01*
X437366D01*
Y265394D01*
X437287D01*
Y265314D01*
Y265235D01*
X437207D01*
Y265156D01*
Y265076D01*
X437128D01*
Y264997D01*
X437048D01*
Y264918D01*
Y264838D01*
X436969D01*
Y264759D01*
Y264680D01*
X436890D01*
Y264600D01*
X436811D01*
Y264521D01*
Y264442D01*
X436731D01*
Y264363D01*
Y264283D01*
X436652D01*
Y264204D01*
X436573D01*
Y264124D01*
Y264045D01*
X436493D01*
Y263966D01*
X436414D01*
Y263887D01*
Y263807D01*
X436335D01*
Y263728D01*
Y263649D01*
X436255D01*
Y263569D01*
X436176D01*
Y263490D01*
Y263411D01*
X436097D01*
Y263331D01*
Y263252D01*
X436017D01*
Y263173D01*
X435938D01*
Y263093D01*
Y263014D01*
X435859D01*
Y262935D01*
Y262856D01*
X435779D01*
Y262776D01*
X435700D01*
Y262697D01*
Y262617D01*
X435621D01*
Y262538D01*
X435541D01*
Y262459D01*
Y262380D01*
X435462D01*
Y262300D01*
Y262221D01*
X435383D01*
Y262142D01*
X435303D01*
Y262062D01*
Y261983D01*
X435224D01*
Y261904D01*
Y261824D01*
X435145D01*
Y261745D01*
X435066D01*
Y261666D01*
Y261586D01*
X434986D01*
Y261507D01*
Y261428D01*
X434907D01*
Y261348D01*
X434828D01*
Y261269D01*
Y261190D01*
X434748D01*
Y261110D01*
X434669D01*
Y261031D01*
Y260952D01*
X434590D01*
Y260873D01*
Y260793D01*
X434510D01*
Y260714D01*
X434431D01*
Y260634D01*
Y260555D01*
X434352D01*
Y260476D01*
Y260397D01*
X434272D01*
Y260317D01*
X434193D01*
Y260238D01*
Y260159D01*
X434114D01*
Y260079D01*
X434034D01*
Y260000D01*
Y259921D01*
X433955D01*
Y259841D01*
X433876D01*
Y259762D01*
X433797D01*
Y259683D01*
X433717D01*
Y259603D01*
X433638D01*
Y259524D01*
X433559D01*
Y259445D01*
X433400D01*
Y259366D01*
X433241D01*
Y259286D01*
X433083D01*
Y259207D01*
X432765D01*
Y259127D01*
X431338D01*
Y259207D01*
X431417D01*
Y259286D01*
Y259366D01*
X431496D01*
Y259445D01*
Y259524D01*
X431576D01*
Y259603D01*
X431655D01*
Y259683D01*
Y259762D01*
X431734D01*
Y259841D01*
X431813D01*
Y259921D01*
Y260000D01*
X431893D01*
Y260079D01*
Y260159D01*
X431972D01*
Y260238D01*
X432052D01*
Y260317D01*
Y260397D01*
X432131D01*
Y260476D01*
Y260555D01*
X432210D01*
Y260634D01*
X432289D01*
Y260714D01*
Y260793D01*
X432369D01*
Y260873D01*
Y260952D01*
X432448D01*
Y261031D01*
X432527D01*
Y261110D01*
Y261190D01*
X432607D01*
Y261269D01*
Y261348D01*
X432686D01*
Y261428D01*
X432765D01*
Y261507D01*
Y261586D01*
X432845D01*
Y261666D01*
X432924D01*
Y261745D01*
Y261824D01*
X433003D01*
Y261904D01*
Y261983D01*
X433083D01*
Y262062D01*
X433162D01*
Y262142D01*
Y262221D01*
X433241D01*
Y262300D01*
Y262380D01*
X433321D01*
Y262459D01*
X433400D01*
Y262538D01*
Y262617D01*
X433479D01*
Y262697D01*
Y262776D01*
X433559D01*
Y262856D01*
X433638D01*
Y262935D01*
Y263014D01*
X433717D01*
Y263093D01*
Y263173D01*
X433797D01*
Y263252D01*
X433876D01*
Y263331D01*
Y263411D01*
X433955D01*
Y263490D01*
X434034D01*
Y263569D01*
Y263649D01*
X434114D01*
Y263728D01*
Y263807D01*
X434193D01*
Y263887D01*
X434272D01*
Y263966D01*
Y264045D01*
X434352D01*
Y264124D01*
X434431D01*
Y264204D01*
Y264283D01*
X434510D01*
Y264363D01*
Y264442D01*
X434590D01*
Y264521D01*
X434669D01*
Y264600D01*
Y264680D01*
X434748D01*
Y264759D01*
Y264838D01*
X434828D01*
Y264918D01*
X434907D01*
Y264997D01*
Y265076D01*
X434986D01*
Y265156D01*
X435066D01*
Y265235D01*
Y265314D01*
X435145D01*
Y265394D01*
Y265473D01*
X435224D01*
Y265552D01*
X435303D01*
Y265632D01*
Y265711D01*
X435383D01*
Y265790D01*
X435462D01*
Y265869D01*
Y265949D01*
X435541D01*
Y266028D01*
Y266108D01*
X435621D01*
Y266187D01*
X435700D01*
Y266266D01*
Y266346D01*
X435779D01*
Y266425D01*
X435859D01*
Y266504D01*
Y266583D01*
X435938D01*
Y266663D01*
Y266742D01*
X436017D01*
Y266821D01*
X436097D01*
Y266901D01*
Y266980D01*
X436176D01*
Y267059D01*
X436255D01*
Y267139D01*
X436414D01*
Y267218D01*
X436493D01*
Y267297D01*
X436652D01*
Y267377D01*
X436811D01*
Y267456D01*
X436969D01*
Y267535D01*
X437287D01*
Y267615D01*
X438635D01*
Y267535D01*
D02*
G37*
G36*
X433162D02*
Y267456D01*
X433083D01*
Y267377D01*
Y267297D01*
X433003D01*
Y267218D01*
X432924D01*
Y267139D01*
Y267059D01*
X432845D01*
Y266980D01*
Y266901D01*
X432765D01*
Y266821D01*
X432686D01*
Y266742D01*
Y266663D01*
X432607D01*
Y266583D01*
Y266504D01*
X432527D01*
Y266425D01*
X432448D01*
Y266346D01*
Y266266D01*
X432369D01*
Y266187D01*
X432289D01*
Y266108D01*
Y266028D01*
X432210D01*
Y265949D01*
Y265869D01*
X432131D01*
Y265790D01*
X432052D01*
Y265711D01*
Y265632D01*
X431972D01*
Y265552D01*
Y265473D01*
X431893D01*
Y265394D01*
X431813D01*
Y265314D01*
Y265235D01*
X431734D01*
Y265156D01*
Y265076D01*
X431655D01*
Y264997D01*
X431576D01*
Y264918D01*
Y264838D01*
X431496D01*
Y264759D01*
Y264680D01*
X431417D01*
Y264600D01*
X431338D01*
Y264521D01*
Y264442D01*
X431258D01*
Y264363D01*
X431179D01*
Y264283D01*
Y264204D01*
X431100D01*
Y264124D01*
Y264045D01*
X431020D01*
Y263966D01*
X430941D01*
Y263887D01*
Y263807D01*
X430862D01*
Y263728D01*
Y263649D01*
X430782D01*
Y263569D01*
X430703D01*
Y263490D01*
Y263411D01*
X430624D01*
Y263331D01*
Y263252D01*
X430544D01*
Y263173D01*
X430465D01*
Y263093D01*
Y263014D01*
X430386D01*
Y262935D01*
X430306D01*
Y262856D01*
Y262776D01*
X430227D01*
Y262697D01*
Y262617D01*
X430148D01*
Y262538D01*
X430068D01*
Y262459D01*
Y262380D01*
X429989D01*
Y262300D01*
Y262221D01*
X429910D01*
Y262142D01*
X429831D01*
Y262062D01*
Y261983D01*
X429751D01*
Y261904D01*
Y261824D01*
X429672D01*
Y261745D01*
X429593D01*
Y261666D01*
Y261586D01*
X429513D01*
Y261507D01*
X429434D01*
Y261428D01*
Y261348D01*
X429355D01*
Y261269D01*
Y261190D01*
X429275D01*
Y261110D01*
X429196D01*
Y261031D01*
Y260952D01*
X429117D01*
Y260873D01*
Y260793D01*
X429037D01*
Y260714D01*
X428958D01*
Y260634D01*
Y260555D01*
X428879D01*
Y260476D01*
X428799D01*
Y260397D01*
Y260317D01*
X428720D01*
Y260238D01*
Y260159D01*
X428641D01*
Y260079D01*
X428561D01*
Y260000D01*
Y259921D01*
X428482D01*
Y259841D01*
X428403D01*
Y259762D01*
X428324D01*
Y259683D01*
X428244D01*
Y259603D01*
X428165D01*
Y259524D01*
X428086D01*
Y259445D01*
X427927D01*
Y259366D01*
X427768D01*
Y259286D01*
X427610D01*
Y259207D01*
X427292D01*
Y259127D01*
X425865D01*
Y259207D01*
X425944D01*
Y259286D01*
Y259366D01*
X426023D01*
Y259445D01*
X426103D01*
Y259524D01*
Y259603D01*
X426182D01*
Y259683D01*
Y259762D01*
X426261D01*
Y259841D01*
X426340D01*
Y259921D01*
Y260000D01*
X426420D01*
Y260079D01*
Y260159D01*
X426499D01*
Y260238D01*
X426579D01*
Y260317D01*
Y260397D01*
X426658D01*
Y260476D01*
Y260555D01*
X426737D01*
Y260634D01*
X426816D01*
Y260714D01*
Y260793D01*
X426896D01*
Y260873D01*
X426975D01*
Y260952D01*
Y261031D01*
X427054D01*
Y261110D01*
Y261190D01*
X427134D01*
Y261269D01*
X427213D01*
Y261348D01*
Y261428D01*
X427292D01*
Y261507D01*
Y261586D01*
X427372D01*
Y261666D01*
X427451D01*
Y261745D01*
Y261824D01*
X427530D01*
Y261904D01*
Y261983D01*
X427610D01*
Y262062D01*
X427689D01*
Y262142D01*
Y262221D01*
X427768D01*
Y262300D01*
X427848D01*
Y262380D01*
Y262459D01*
X427927D01*
Y262538D01*
Y262617D01*
X428006D01*
Y262697D01*
X428086D01*
Y262776D01*
Y262856D01*
X428165D01*
Y262935D01*
Y263014D01*
X428244D01*
Y263093D01*
X428324D01*
Y263173D01*
Y263252D01*
X428403D01*
Y263331D01*
Y263411D01*
X428482D01*
Y263490D01*
X428561D01*
Y263569D01*
Y263649D01*
X428641D01*
Y263728D01*
X428720D01*
Y263807D01*
Y263887D01*
X428799D01*
Y263966D01*
Y264045D01*
X428879D01*
Y264124D01*
X428958D01*
Y264204D01*
Y264283D01*
X429037D01*
Y264363D01*
Y264442D01*
X429117D01*
Y264521D01*
X429196D01*
Y264600D01*
Y264680D01*
X429275D01*
Y264759D01*
Y264838D01*
X429355D01*
Y264918D01*
X429434D01*
Y264997D01*
Y265076D01*
X429513D01*
Y265156D01*
X429593D01*
Y265235D01*
Y265314D01*
X429672D01*
Y265394D01*
Y265473D01*
X429751D01*
Y265552D01*
X429831D01*
Y265632D01*
Y265711D01*
X429910D01*
Y265790D01*
Y265869D01*
X429989D01*
Y265949D01*
X430068D01*
Y266028D01*
Y266108D01*
X430148D01*
Y266187D01*
Y266266D01*
X430227D01*
Y266346D01*
X430306D01*
Y266425D01*
Y266504D01*
X430386D01*
Y266583D01*
Y266663D01*
X430465D01*
Y266742D01*
X430544D01*
Y266821D01*
X430624D01*
Y266901D01*
Y266980D01*
X430703D01*
Y267059D01*
X430862D01*
Y267139D01*
X430941D01*
Y267218D01*
X431020D01*
Y267297D01*
X431179D01*
Y267377D01*
X431338D01*
Y267456D01*
X431496D01*
Y267535D01*
X431813D01*
Y267615D01*
X433162D01*
Y267535D01*
D02*
G37*
%LPC*%
G36*
X474645Y264680D02*
X474407D01*
Y264600D01*
X473932D01*
Y264521D01*
X473694D01*
Y264442D01*
X473535D01*
Y264363D01*
X473376D01*
Y264283D01*
X473297D01*
Y264204D01*
X473138D01*
Y264124D01*
X473059D01*
Y264045D01*
X472980D01*
Y263966D01*
X472900D01*
Y263887D01*
X472821D01*
Y263807D01*
X472742D01*
Y263728D01*
X472662D01*
Y263649D01*
X472583D01*
Y263569D01*
Y263490D01*
X472504D01*
Y263411D01*
X472425D01*
Y263331D01*
Y263252D01*
X472345D01*
Y263173D01*
Y263093D01*
X472266D01*
Y263014D01*
Y262935D01*
Y262856D01*
X472187D01*
Y262776D01*
Y262697D01*
Y262617D01*
Y262538D01*
X472107D01*
Y262459D01*
Y262380D01*
Y262300D01*
Y262221D01*
Y262142D01*
Y262062D01*
Y261983D01*
Y261904D01*
Y261824D01*
Y261745D01*
Y261666D01*
Y261586D01*
Y261507D01*
Y261428D01*
Y261348D01*
X472187D01*
Y261269D01*
Y261190D01*
Y261110D01*
X472266D01*
Y261031D01*
Y260952D01*
Y260873D01*
X472345D01*
Y260793D01*
X472425D01*
Y260714D01*
Y260634D01*
X472504D01*
Y260555D01*
X472583D01*
Y260476D01*
X472662D01*
Y260397D01*
X472742D01*
Y260317D01*
X472900D01*
Y260238D01*
X472980D01*
Y260159D01*
X473138D01*
Y260079D01*
X473376D01*
Y260000D01*
X473773D01*
Y259921D01*
X474328D01*
Y260000D01*
X474725D01*
Y260079D01*
X474883D01*
Y260159D01*
X475121D01*
Y260238D01*
X475201D01*
Y260317D01*
X475359D01*
Y260397D01*
X475439D01*
Y260476D01*
X475597D01*
Y260555D01*
X475676D01*
Y260634D01*
X475756D01*
Y260714D01*
X475835D01*
Y260793D01*
X475914D01*
Y260873D01*
Y260952D01*
X475994D01*
Y261031D01*
X476073D01*
Y261110D01*
X476152D01*
Y261190D01*
Y261269D01*
X476232D01*
Y261348D01*
Y261428D01*
X476311D01*
Y261507D01*
Y261586D01*
Y261666D01*
X476390D01*
Y261745D01*
Y261824D01*
Y261904D01*
X476470D01*
Y261983D01*
Y262062D01*
Y262142D01*
Y262221D01*
Y262300D01*
X476549D01*
Y262380D01*
Y262459D01*
Y262538D01*
Y262617D01*
Y262697D01*
Y262776D01*
Y262856D01*
Y262935D01*
Y263014D01*
X476470D01*
Y263093D01*
Y263173D01*
Y263252D01*
Y263331D01*
Y263411D01*
X476390D01*
Y263490D01*
Y263569D01*
X476311D01*
Y263649D01*
Y263728D01*
X476232D01*
Y263807D01*
Y263887D01*
X476152D01*
Y263966D01*
X476073D01*
Y264045D01*
X475994D01*
Y264124D01*
X475914D01*
Y264204D01*
X475835D01*
Y264283D01*
X475676D01*
Y264363D01*
X475597D01*
Y264442D01*
X475439D01*
Y264521D01*
X475201D01*
Y264600D01*
X474645D01*
Y264680D01*
D02*
G37*
G36*
X469093D02*
X468855D01*
Y264600D01*
X468379D01*
Y264521D01*
X468141D01*
Y264442D01*
X467983D01*
Y264363D01*
X467824D01*
Y264283D01*
X467745D01*
Y264204D01*
X467586D01*
Y264124D01*
X467507D01*
Y264045D01*
X467427D01*
Y263966D01*
X467348D01*
Y263887D01*
X467269D01*
Y263807D01*
X467190D01*
Y263728D01*
X467110D01*
Y263649D01*
X467031D01*
Y263569D01*
Y263490D01*
X466952D01*
Y263411D01*
X466872D01*
Y263331D01*
Y263252D01*
X466793D01*
Y263173D01*
Y263093D01*
X466714D01*
Y263014D01*
Y262935D01*
Y262856D01*
X466634D01*
Y262776D01*
Y262697D01*
Y262617D01*
Y262538D01*
X466555D01*
Y262459D01*
Y262380D01*
Y262300D01*
Y262221D01*
Y262142D01*
Y262062D01*
Y261983D01*
Y261904D01*
Y261824D01*
Y261745D01*
Y261666D01*
Y261586D01*
Y261507D01*
Y261428D01*
Y261348D01*
Y261269D01*
X466634D01*
Y261190D01*
Y261110D01*
X466714D01*
Y261031D01*
Y260952D01*
X466793D01*
Y260873D01*
Y260793D01*
X466872D01*
Y260714D01*
X466952D01*
Y260634D01*
Y260555D01*
X467031D01*
Y260476D01*
X467110D01*
Y260397D01*
X467190D01*
Y260317D01*
X467348D01*
Y260238D01*
X467427D01*
Y260159D01*
X467586D01*
Y260079D01*
X467824D01*
Y260000D01*
X468141D01*
Y259921D01*
X468855D01*
Y260000D01*
X469172D01*
Y260079D01*
X469410D01*
Y260159D01*
X469569D01*
Y260238D01*
X469728D01*
Y260317D01*
X469807D01*
Y260397D01*
X469966D01*
Y260476D01*
X470045D01*
Y260555D01*
X470124D01*
Y260634D01*
X470203D01*
Y260714D01*
X470283D01*
Y260793D01*
X470362D01*
Y260873D01*
Y260952D01*
X470441D01*
Y261031D01*
X470521D01*
Y261110D01*
Y261190D01*
X470600D01*
Y261269D01*
X470680D01*
Y261348D01*
Y261428D01*
X470759D01*
Y261507D01*
Y261586D01*
Y261666D01*
X470838D01*
Y261745D01*
Y261824D01*
Y261904D01*
X470917D01*
Y261983D01*
Y262062D01*
Y262142D01*
Y262221D01*
Y262300D01*
Y262380D01*
X470997D01*
Y262459D01*
Y262538D01*
Y262617D01*
Y262697D01*
Y262776D01*
Y262856D01*
Y262935D01*
Y263014D01*
X470917D01*
Y263093D01*
Y263173D01*
Y263252D01*
Y263331D01*
Y263411D01*
X470838D01*
Y263490D01*
Y263569D01*
X470759D01*
Y263649D01*
Y263728D01*
X470680D01*
Y263807D01*
X470600D01*
Y263887D01*
Y263966D01*
X470521D01*
Y264045D01*
X470441D01*
Y264124D01*
X470362D01*
Y264204D01*
X470283D01*
Y264283D01*
X470124D01*
Y264363D01*
X470045D01*
Y264442D01*
X469886D01*
Y264521D01*
X469648D01*
Y264600D01*
X469093D01*
Y264680D01*
D02*
G37*
G36*
X482101Y264521D02*
X480198D01*
Y264442D01*
Y264363D01*
Y264283D01*
Y264204D01*
Y264124D01*
X480118D01*
Y264045D01*
Y263966D01*
Y263887D01*
Y263807D01*
X480039D01*
Y263728D01*
Y263649D01*
Y263569D01*
Y263490D01*
Y263411D01*
X479960D01*
Y263331D01*
Y263252D01*
Y263173D01*
Y263093D01*
Y263014D01*
X479880D01*
Y262935D01*
Y262856D01*
Y262776D01*
Y262697D01*
X479801D01*
Y262617D01*
Y262538D01*
Y262459D01*
X481784D01*
Y262538D01*
X482022D01*
Y262617D01*
X482181D01*
Y262697D01*
X482260D01*
Y262776D01*
X482339D01*
Y262856D01*
X482419D01*
Y262935D01*
X482498D01*
Y263014D01*
X482577D01*
Y263093D01*
Y263173D01*
X482656D01*
Y263252D01*
Y263331D01*
Y263411D01*
Y263490D01*
X482736D01*
Y263569D01*
Y263649D01*
Y263728D01*
Y263807D01*
Y263887D01*
X482656D01*
Y263966D01*
Y264045D01*
X482577D01*
Y264124D01*
Y264204D01*
X482498D01*
Y264283D01*
X482419D01*
Y264363D01*
X482260D01*
Y264442D01*
X482101D01*
Y264521D01*
D02*
G37*
G36*
X458464D02*
X456640D01*
Y264442D01*
Y264363D01*
X456561D01*
Y264283D01*
Y264204D01*
Y264124D01*
Y264045D01*
X456482D01*
Y263966D01*
Y263887D01*
Y263807D01*
Y263728D01*
Y263649D01*
X456402D01*
Y263569D01*
Y263490D01*
Y263411D01*
Y263331D01*
X456323D01*
Y263252D01*
Y263173D01*
Y263093D01*
Y263014D01*
Y262935D01*
X456244D01*
Y262856D01*
Y262776D01*
Y262697D01*
Y262617D01*
X456164D01*
Y262538D01*
Y262459D01*
X458147D01*
Y262538D01*
X458385D01*
Y262617D01*
X458544D01*
Y262697D01*
X458702D01*
Y262776D01*
X458782D01*
Y262856D01*
X458861D01*
Y262935D01*
Y263014D01*
X458940D01*
Y263093D01*
Y263173D01*
X459020D01*
Y263252D01*
Y263331D01*
X459099D01*
Y263411D01*
Y263490D01*
Y263569D01*
Y263649D01*
Y263728D01*
Y263807D01*
Y263887D01*
X459020D01*
Y263966D01*
Y264045D01*
X458940D01*
Y264124D01*
Y264204D01*
X458861D01*
Y264283D01*
X458782D01*
Y264363D01*
X458623D01*
Y264442D01*
X458464D01*
Y264521D01*
D02*
G37*
G36*
X452991Y262062D02*
X452833D01*
Y261983D01*
X452991D01*
Y262062D01*
D02*
G37*
G36*
X441252Y264442D02*
X441094D01*
Y264363D01*
Y264283D01*
X441014D01*
Y264204D01*
Y264124D01*
X440935D01*
Y264045D01*
X440856D01*
Y263966D01*
Y263887D01*
X440776D01*
Y263807D01*
Y263728D01*
X440697D01*
Y263649D01*
X440618D01*
Y263569D01*
Y263490D01*
X440539D01*
Y263411D01*
Y263331D01*
X440459D01*
Y263252D01*
X440380D01*
Y263173D01*
Y263093D01*
X440301D01*
Y263014D01*
Y262935D01*
X440221D01*
Y262856D01*
X440142D01*
Y262776D01*
Y262697D01*
X440063D01*
Y262617D01*
Y262538D01*
X439983D01*
Y262459D01*
X439904D01*
Y262380D01*
Y262300D01*
X439825D01*
Y262221D01*
Y262142D01*
X439745D01*
Y262062D01*
X439666D01*
Y261983D01*
Y261904D01*
X439587D01*
Y261824D01*
Y261745D01*
X439507D01*
Y261666D01*
Y261586D01*
X439428D01*
Y261507D01*
X439349D01*
Y261428D01*
X439269D01*
Y261348D01*
Y261269D01*
X441728D01*
Y261348D01*
Y261428D01*
Y261507D01*
Y261586D01*
Y261666D01*
X441649D01*
Y261745D01*
Y261824D01*
Y261904D01*
Y261983D01*
Y262062D01*
Y262142D01*
X441570D01*
Y262221D01*
Y262300D01*
Y262380D01*
Y262459D01*
Y262538D01*
Y262617D01*
X441490D01*
Y262697D01*
Y262776D01*
Y262856D01*
Y262935D01*
Y263014D01*
Y263093D01*
Y263173D01*
X441411D01*
Y263252D01*
Y263331D01*
Y263411D01*
Y263490D01*
Y263569D01*
Y263649D01*
X441332D01*
Y263728D01*
Y263807D01*
Y263887D01*
Y263966D01*
Y264045D01*
Y264124D01*
X441252D01*
Y264204D01*
Y264283D01*
Y264363D01*
Y264442D01*
D02*
G37*
%LPD*%
D10*
X395500Y459500D02*
X394750Y459933D01*
Y459067D01*
X395500Y459500D01*
X348685D02*
X347935Y459933D01*
Y459067D01*
X348685Y459500D01*
X255000Y401500D02*
X254898Y402506D01*
X254595Y403472D01*
X254104Y404356D01*
X253445Y405124D01*
X252645Y405743D01*
X251736Y406189D01*
X250757Y406442D01*
X249747Y406494D01*
X248747Y406340D01*
X247798Y405989D01*
X246939Y405454D01*
X246206Y404757D01*
X245628Y403927D01*
X245229Y402997D01*
X245026Y402006D01*
Y400994D01*
X245229Y400003D01*
X245628Y399074D01*
X246206Y398243D01*
X246939Y397546D01*
X247798Y397011D01*
X248747Y396660D01*
X249747Y396506D01*
X250757Y396558D01*
X251736Y396811D01*
X252645Y397257D01*
X253445Y397876D01*
X254104Y398644D01*
X254595Y399528D01*
X254898Y400493D01*
X255000Y401500D01*
X254500Y420500D02*
X254398Y421507D01*
X254095Y422472D01*
X253604Y423356D01*
X252945Y424124D01*
X252145Y424743D01*
X251237Y425189D01*
X250257Y425442D01*
X249247Y425494D01*
X248247Y425340D01*
X247298Y424989D01*
X246440Y424454D01*
X245706Y423757D01*
X245128Y422927D01*
X244729Y421997D01*
X244526Y421006D01*
Y419994D01*
X244729Y419003D01*
X245128Y418074D01*
X245706Y417243D01*
X246440Y416546D01*
X247298Y416011D01*
X248247Y415660D01*
X249247Y415506D01*
X250257Y415558D01*
X251237Y415811D01*
X252145Y416257D01*
X252945Y416876D01*
X253604Y417644D01*
X254095Y418528D01*
X254398Y419493D01*
X254500Y420500D01*
X366000Y311000D02*
X365898Y312006D01*
X365595Y312972D01*
X365104Y313856D01*
X364445Y314624D01*
X363645Y315243D01*
X362737Y315689D01*
X361757Y315942D01*
X360747Y315994D01*
X359747Y315840D01*
X358798Y315489D01*
X357940Y314954D01*
X357206Y314257D01*
X356628Y313426D01*
X356229Y312497D01*
X356026Y311506D01*
Y310494D01*
X356229Y309503D01*
X356628Y308574D01*
X357206Y307743D01*
X357940Y307046D01*
X358798Y306511D01*
X359747Y306160D01*
X360747Y306006D01*
X361757Y306058D01*
X362737Y306311D01*
X363645Y306757D01*
X364445Y307376D01*
X365104Y308144D01*
X365595Y309028D01*
X365898Y309994D01*
X366000Y311000D01*
Y290500D02*
X365898Y291507D01*
X365595Y292472D01*
X365104Y293356D01*
X364445Y294124D01*
X363645Y294743D01*
X362737Y295189D01*
X361757Y295442D01*
X360747Y295494D01*
X359747Y295340D01*
X358798Y294989D01*
X357940Y294454D01*
X357206Y293757D01*
X356628Y292927D01*
X356229Y291997D01*
X356026Y291006D01*
Y289994D01*
X356229Y289003D01*
X356628Y288073D01*
X357206Y287243D01*
X357940Y286546D01*
X358798Y286011D01*
X359747Y285660D01*
X360747Y285506D01*
X361757Y285558D01*
X362737Y285811D01*
X363645Y286257D01*
X364445Y286876D01*
X365104Y287644D01*
X365595Y288528D01*
X365898Y289493D01*
X366000Y290500D01*
X373248Y336559D02*
Y381441D01*
X391752Y336559D02*
Y381441D01*
X373248Y336559D02*
X391752D01*
X373248Y381441D02*
X391752D01*
X404167Y483833D02*
X406833Y481167D01*
X404167D02*
X406833Y483833D01*
X404167Y482500D02*
X406833D01*
X405500Y481167D02*
Y483833D01*
X444834Y321499D02*
X447500D01*
X446167D01*
Y317501D01*
X448833D02*
X450166D01*
X449499D01*
Y321499D01*
X448833Y320833D01*
X320501Y362999D02*
Y358001D01*
X321501Y357001D01*
X323500D01*
X324500Y358001D01*
Y362999D01*
X326499Y357001D02*
X328499D01*
X327499D01*
Y362999D01*
X326499Y361999D01*
D11*
X427584Y416500D02*
X427031Y417261D01*
X426136Y416970D01*
Y416030D01*
X427031Y415739D01*
X427584Y416500D01*
X424500Y420150D02*
X466500D01*
Y439250D01*
X424500D02*
X466500D01*
X424500Y420150D02*
Y439250D01*
X397657Y413025D02*
Y413715D01*
X385257Y405215D02*
X397657D01*
Y405905D01*
X385257Y413715D02*
X397657D01*
X385257Y413025D02*
Y413715D01*
Y405215D02*
Y405905D01*
D12*
X284957Y349583D02*
X284219Y350009D01*
Y349156D01*
X284957Y349583D01*
D13*
X381264Y409579D02*
D03*
D14*
X270606Y371280D02*
X271394D01*
X270606Y368721D02*
X271394D01*
X330106Y379780D02*
X330894D01*
X330106Y377221D02*
X330894D01*
X294646Y473244D02*
Y478756D01*
X300354Y473244D02*
Y478756D01*
X294646Y451244D02*
Y456756D01*
X300354Y451244D02*
Y456756D01*
X294646Y429744D02*
Y435256D01*
X300354Y429744D02*
Y435256D01*
X326720Y333606D02*
Y334394D01*
X329279Y333606D02*
Y334394D01*
X394106Y423279D02*
X394894D01*
X394106Y420720D02*
X394894D01*
X379606Y423279D02*
X380394D01*
X379606Y420720D02*
X380394D01*
X364858Y423279D02*
X365646D01*
X364858Y420720D02*
X365646D01*
X335106Y423279D02*
X335894D01*
X335106Y420720D02*
X335894D01*
X260500Y454000D02*
X280500D01*
X260500Y444000D02*
Y454000D01*
Y444000D02*
X280500D01*
Y454000D01*
X415587Y313476D02*
X415784D01*
X304500Y258000D02*
X324500D01*
X304500Y248000D02*
Y258000D01*
Y248000D02*
X324500D01*
Y258000D01*
X288795Y323795D02*
X313205D01*
X288795Y348205D02*
X313205D01*
Y323795D02*
Y348205D01*
X288795Y323795D02*
Y348205D01*
X331500Y248000D02*
X391500D01*
X331500Y258000D02*
X391500D01*
X331500Y248000D02*
Y258000D01*
X391500Y248000D02*
Y258000D01*
X386358Y261221D02*
X387146D01*
X386358Y263779D02*
X387146D01*
X349606Y420720D02*
X350394D01*
X349606Y423279D02*
X350394D01*
X294646Y407744D02*
Y413256D01*
X300354Y407744D02*
Y413256D01*
X314244Y402646D02*
X319756D01*
X314244Y408354D02*
X319756D01*
X314244Y419354D02*
X319756D01*
X314244Y413646D02*
X319756D01*
X314244Y425146D02*
X319756D01*
X314244Y430854D02*
X319756D01*
X374606Y263779D02*
X375394D01*
X374606Y261221D02*
X375394D01*
X322606Y264220D02*
X323394D01*
X322606Y266779D02*
X323394D01*
X471500Y394500D02*
Y404500D01*
X441500Y394500D02*
X471500D01*
X441500D02*
Y404500D01*
X471500D01*
X400803Y350764D02*
X401197D01*
X400803Y346236D02*
X401197D01*
X400803Y367736D02*
X401197D01*
X400803Y372264D02*
X401197D01*
X480764Y395803D02*
Y396197D01*
X476236Y395803D02*
Y396197D01*
X296236Y292803D02*
Y293197D01*
X300764Y292803D02*
Y293197D01*
X303236Y292803D02*
Y293197D01*
X307764Y292803D02*
Y293197D01*
X355803Y402736D02*
X356197D01*
X355803Y407264D02*
X356197D01*
X315736Y292803D02*
Y293197D01*
X320264Y292803D02*
Y293197D01*
X283736Y292803D02*
Y293197D01*
X288264Y292803D02*
Y293197D01*
X311303Y361236D02*
X311697D01*
X311303Y365764D02*
X311697D01*
X293303Y361236D02*
X293697D01*
X293303Y365764D02*
X293697D01*
X270303Y376736D02*
X270697D01*
X270303Y381264D02*
X270697D01*
X252000Y262000D02*
X262000D01*
X252000D02*
Y382000D01*
X262000D01*
Y374500D02*
Y382000D01*
Y262000D02*
Y374500D01*
X345500Y390500D02*
X365500D01*
Y400500D01*
X345500D02*
X365500D01*
X345500Y390500D02*
Y400500D01*
X463000Y309000D02*
X473000D01*
Y289000D02*
Y309000D01*
X463000Y289000D02*
X473000D01*
X463000D02*
Y309000D01*
X298500Y248000D02*
Y258000D01*
X268500Y248000D02*
X298500D01*
X268500D02*
Y258000D01*
X298500D01*
X396000Y248000D02*
Y258000D01*
X416000D01*
Y248000D02*
Y258000D01*
X396000Y248000D02*
X416000D01*
D15*
X409244Y440583D02*
Y475622D01*
Y440583D02*
X481291D01*
Y475622D01*
X409244D02*
X481291D01*
X398843Y438752D02*
Y474185D01*
X359472Y438752D02*
X398843D01*
X359472D02*
Y474185D01*
X398843D01*
X352028Y438752D02*
Y474185D01*
X312657Y438752D02*
X352028D01*
X312657D02*
Y474185D01*
X352028D01*
D16*
X405959Y377666D02*
X405376Y378249D01*
X404210D01*
X403626Y377666D01*
Y375334D01*
X404210Y374751D01*
X405376D01*
X405959Y375334D01*
X407125Y374751D02*
X408292D01*
X407708D01*
Y378249D01*
X407125Y377666D01*
X410041D02*
X410624Y378249D01*
X411790D01*
X412374Y377666D01*
Y375334D01*
X411790Y374751D01*
X410624D01*
X410041Y375334D01*
Y377666D01*
X307249Y426167D02*
X303750D01*
Y427917D01*
X304334Y428500D01*
X305500D01*
X306083Y427917D01*
Y426167D01*
Y427334D02*
X307249Y428500D01*
Y429666D02*
Y430833D01*
Y430249D01*
X303750D01*
X304334Y429666D01*
X261633Y459882D02*
X261049Y460465D01*
X259883D01*
X259300Y459882D01*
Y459299D01*
X259883Y458716D01*
X261049D01*
X261633Y458133D01*
Y457549D01*
X261049Y456966D01*
X259883D01*
X259300Y457549D01*
X264548Y456966D02*
X263382D01*
X262799Y457549D01*
Y458716D01*
X263382Y459299D01*
X264548D01*
X265131Y458716D01*
Y458133D01*
X262799D01*
X266298Y456966D02*
Y459299D01*
X268047D01*
X268630Y458716D01*
Y456966D01*
X269797D02*
X271546D01*
X272129Y457549D01*
X271546Y458133D01*
X270380D01*
X269797Y458716D01*
X270380Y459299D01*
X272129D01*
X273295Y456966D02*
X274462D01*
X273879D01*
Y459299D01*
X273295D01*
X276211Y456966D02*
Y459299D01*
X277961D01*
X278544Y458716D01*
Y456966D01*
X280876Y455800D02*
X281459D01*
X282043Y456383D01*
Y459299D01*
X280293D01*
X279710Y458716D01*
Y457549D01*
X280293Y456966D01*
X282043D01*
X269633Y245216D02*
X269049Y245799D01*
X267883D01*
X267300Y245216D01*
Y244633D01*
X267883Y244049D01*
X269049D01*
X269633Y243466D01*
Y242883D01*
X269049Y242300D01*
X267883D01*
X267300Y242883D01*
X273131Y245216D02*
X272548Y245799D01*
X271382D01*
X270799Y245216D01*
Y242883D01*
X271382Y242300D01*
X272548D01*
X273131Y242883D01*
X274298Y245799D02*
Y242300D01*
X276630D01*
X282633Y245216D02*
X282049Y245799D01*
X280883D01*
X280300Y245216D01*
Y244633D01*
X280883Y244049D01*
X282049D01*
X282633Y243466D01*
Y242883D01*
X282049Y242300D01*
X280883D01*
X280300Y242883D01*
X283799Y245799D02*
Y242300D01*
X285548D01*
X286131Y242883D01*
Y245216D01*
X285548Y245799D01*
X283799D01*
X287298Y242300D02*
Y244633D01*
X288464Y245799D01*
X289630Y244633D01*
Y242300D01*
Y244049D01*
X287298D01*
X312800Y246299D02*
X313966D01*
X313383D01*
Y242800D01*
X312800D01*
X313966D01*
X317465Y246299D02*
X316299D01*
X315716Y245716D01*
Y243383D01*
X316299Y242800D01*
X317465D01*
X318048Y243383D01*
Y245716D01*
X317465Y246299D01*
X319215D02*
Y243966D01*
X320381Y242800D01*
X321547Y243966D01*
Y246299D01*
X325046Y245716D02*
X324463Y246299D01*
X323297D01*
X322713Y245716D01*
Y243383D01*
X323297Y242800D01*
X324463D01*
X325046Y243383D01*
X328545Y245716D02*
X327962Y246299D01*
X326796D01*
X326212Y245716D01*
Y243383D01*
X326796Y242800D01*
X327962D01*
X328545Y243383D01*
X398133Y243216D02*
X397549Y243799D01*
X396383D01*
X395800Y243216D01*
Y242633D01*
X396383Y242049D01*
X397549D01*
X398133Y241466D01*
Y240883D01*
X397549Y240300D01*
X396383D01*
X395800Y240883D01*
X399299Y243799D02*
Y240300D01*
X401048D01*
X401631Y240883D01*
Y243216D01*
X401048Y243799D01*
X399299D01*
X402798D02*
X403964D01*
X403381D01*
Y240300D01*
X402798D01*
X403964D01*
X409633Y243216D02*
X409049Y243799D01*
X407883D01*
X407300Y243216D01*
Y242633D01*
X407883Y242049D01*
X409049D01*
X409633Y241466D01*
Y240883D01*
X409049Y240300D01*
X407883D01*
X407300Y240883D01*
X410799Y243799D02*
Y240300D01*
X412548D01*
X413132Y240883D01*
Y243216D01*
X412548Y243799D01*
X410799D01*
X416047D02*
X414881D01*
X414298Y243216D01*
Y240883D01*
X414881Y240300D01*
X416047D01*
X416630Y240883D01*
Y243216D01*
X416047Y243799D01*
X357300Y478300D02*
Y482299D01*
X358633Y480966D01*
X359966Y482299D01*
Y478300D01*
X363298Y482299D02*
X361965D01*
X361299Y481632D01*
Y478966D01*
X361965Y478300D01*
X363298D01*
X363965Y478966D01*
Y481632D01*
X363298Y482299D01*
X365297D02*
X367963D01*
X366630D01*
Y478300D01*
X371295Y482299D02*
X369963D01*
X369296Y481632D01*
Y478966D01*
X369963Y478300D01*
X371295D01*
X371962Y478966D01*
Y481632D01*
X371295Y482299D01*
X373295Y478300D02*
Y482299D01*
X375294D01*
X375961Y481632D01*
Y480299D01*
X375294Y479633D01*
X373295D01*
X374628D02*
X375961Y478300D01*
X383958Y481632D02*
X383292Y482299D01*
X381959D01*
X381292Y481632D01*
Y478966D01*
X381959Y478300D01*
X383292D01*
X383958Y478966D01*
X387290Y482299D02*
X385957D01*
X385291Y481632D01*
Y478966D01*
X385957Y478300D01*
X387290D01*
X387957Y478966D01*
Y481632D01*
X387290Y482299D01*
X389290Y478300D02*
Y482299D01*
X391955Y478300D01*
Y482299D01*
X393288Y478300D02*
Y482299D01*
X395954Y478300D01*
Y482299D01*
X312300D02*
Y478300D01*
X314299D01*
X314966Y478966D01*
Y479633D01*
X314299Y480299D01*
X312300D01*
X314299D01*
X314966Y480966D01*
Y481632D01*
X314299Y482299D01*
X312300D01*
X316299Y478300D02*
Y480966D01*
X317632Y482299D01*
X318965Y480966D01*
Y478300D01*
Y480299D01*
X316299D01*
X320297Y482299D02*
X322963D01*
X321630D01*
Y478300D01*
X324296Y482299D02*
X326962D01*
X325629D01*
Y478300D01*
X334959Y481632D02*
X334293Y482299D01*
X332960D01*
X332294Y481632D01*
Y478966D01*
X332960Y478300D01*
X334293D01*
X334959Y478966D01*
X338292Y482299D02*
X336959D01*
X336292Y481632D01*
Y478966D01*
X336959Y478300D01*
X338292D01*
X338958Y478966D01*
Y481632D01*
X338292Y482299D01*
X340291Y478300D02*
Y482299D01*
X342957Y478300D01*
Y482299D01*
X344290Y478300D02*
Y482299D01*
X346955Y478300D01*
Y482299D01*
X463300Y286799D02*
X465633D01*
X464466D01*
Y283300D01*
X466799Y286799D02*
X469132Y283300D01*
Y286799D02*
X466799Y283300D01*
X470298Y285049D02*
X472630D01*
X463300Y314299D02*
X465633D01*
X464466D01*
Y310800D01*
X466799Y314299D02*
X469132Y310800D01*
Y314299D02*
X466799Y310800D01*
X470298Y312549D02*
X472630D01*
X471464Y313716D02*
Y311383D01*
X340201Y389300D02*
X343700D01*
Y391049D01*
X343117Y391633D01*
X342534D01*
X341951Y391049D01*
Y389300D01*
Y391049D01*
X341367Y391633D01*
X340784D01*
X340201Y391049D01*
Y389300D01*
X340784Y395131D02*
X340201Y394548D01*
Y393382D01*
X340784Y392799D01*
X343117D01*
X343700Y393382D01*
Y394548D01*
X343117Y395131D01*
X341951D01*
Y393965D01*
X343700Y396298D02*
X340201D01*
X343700Y398630D01*
X340201D01*
Y399797D02*
X343700D01*
Y401546D01*
X343117Y402129D01*
X340784D01*
X340201Y401546D01*
Y399797D01*
X367701Y389800D02*
X370034D01*
X371200Y390966D01*
X370034Y392133D01*
X367701D01*
X371200Y393299D02*
X367701D01*
Y395048D01*
X368284Y395631D01*
X369451D01*
X370034Y395048D01*
Y393299D01*
Y394465D02*
X371200Y395631D01*
X367701Y399130D02*
Y396798D01*
X371200D01*
Y399130D01*
X369451Y396798D02*
Y397964D01*
X367701Y402629D02*
Y400297D01*
X369451D01*
Y401463D01*
Y400297D01*
X371200D01*
X444701Y377300D02*
X448700D01*
Y379299D01*
X448034Y379966D01*
X447367D01*
X446701Y379299D01*
Y377300D01*
Y379299D01*
X446034Y379966D01*
X445368D01*
X444701Y379299D01*
Y377300D01*
X445368Y383964D02*
X444701Y383298D01*
Y381965D01*
X445368Y381299D01*
X448034D01*
X448700Y381965D01*
Y383298D01*
X448034Y383964D01*
X446701D01*
Y382632D01*
X448700Y385297D02*
X444701D01*
X448700Y387963D01*
X444701D01*
Y389296D02*
X448700D01*
Y391296D01*
X448034Y391962D01*
X445368D01*
X444701Y391296D01*
Y389296D01*
X468700Y381300D02*
Y382633D01*
Y381966D01*
X464701D01*
X465368Y381300D01*
X468700Y387298D02*
Y384632D01*
X466034Y387298D01*
X465368D01*
X464701Y386632D01*
Y385299D01*
X465368Y384632D01*
X464701Y388631D02*
X467367D01*
X468700Y389964D01*
X467367Y391297D01*
X464701D01*
X241300Y267799D02*
Y265466D01*
X242466Y264300D01*
X243633Y265466D01*
Y267799D01*
X244799Y264300D02*
X245965D01*
X245382D01*
Y267799D01*
X244799Y267216D01*
X250047Y264300D02*
X247715D01*
X250047Y266633D01*
Y267216D01*
X249464Y267799D01*
X248298D01*
X247715Y267216D01*
X241800Y278299D02*
Y275966D01*
X242966Y274800D01*
X244133Y275966D01*
Y278299D01*
X245299Y274800D02*
X246465D01*
X245882D01*
Y278299D01*
X245299Y277716D01*
X248215Y274800D02*
X249381D01*
X248798D01*
Y278299D01*
X248215Y277716D01*
X241300Y287799D02*
Y285466D01*
X242466Y284300D01*
X243633Y285466D01*
Y287799D01*
X244799Y284300D02*
X245965D01*
X245382D01*
Y287799D01*
X244799Y287216D01*
X247715D02*
X248298Y287799D01*
X249464D01*
X250047Y287216D01*
Y284883D01*
X249464Y284300D01*
X248298D01*
X247715Y284883D01*
Y287216D01*
X242800Y297799D02*
Y295466D01*
X243966Y294300D01*
X245133Y295466D01*
Y297799D01*
X246299Y294883D02*
X246882Y294300D01*
X248048D01*
X248631Y294883D01*
Y297216D01*
X248048Y297799D01*
X246882D01*
X246299Y297216D01*
Y296633D01*
X246882Y296049D01*
X248631D01*
X242800Y307799D02*
Y305466D01*
X243966Y304300D01*
X245133Y305466D01*
Y307799D01*
X246299Y307216D02*
X246882Y307799D01*
X248048D01*
X248631Y307216D01*
Y306633D01*
X248048Y306049D01*
X248631Y305466D01*
Y304883D01*
X248048Y304300D01*
X246882D01*
X246299Y304883D01*
Y305466D01*
X246882Y306049D01*
X246299Y306633D01*
Y307216D01*
X246882Y306049D02*
X248048D01*
X242800Y317799D02*
Y315466D01*
X243966Y314300D01*
X245133Y315466D01*
Y317799D01*
X246299D02*
X248631D01*
Y317216D01*
X246299Y314883D01*
Y314300D01*
X242800Y327799D02*
Y325466D01*
X243966Y324300D01*
X245133Y325466D01*
Y327799D01*
X248631D02*
X247465Y327216D01*
X246299Y326049D01*
Y324883D01*
X246882Y324300D01*
X248048D01*
X248631Y324883D01*
Y325466D01*
X248048Y326049D01*
X246299D01*
X242800Y337799D02*
Y335466D01*
X243966Y334300D01*
X245133Y335466D01*
Y337799D01*
X248631D02*
X246299D01*
Y336049D01*
X247465Y336633D01*
X248048D01*
X248631Y336049D01*
Y334883D01*
X248048Y334300D01*
X246882D01*
X246299Y334883D01*
X242800Y347799D02*
Y345466D01*
X243966Y344300D01*
X245133Y345466D01*
Y347799D01*
X248048Y344300D02*
Y347799D01*
X246299Y346049D01*
X248631D01*
X242800Y357799D02*
Y355466D01*
X243966Y354300D01*
X245133Y355466D01*
Y357799D01*
X246299Y357216D02*
X246882Y357799D01*
X248048D01*
X248631Y357216D01*
Y356633D01*
X248048Y356049D01*
X247465D01*
X248048D01*
X248631Y355466D01*
Y354883D01*
X248048Y354300D01*
X246882D01*
X246299Y354883D01*
X242800Y367799D02*
Y365466D01*
X243966Y364300D01*
X245133Y365466D01*
Y367799D01*
X248631Y364300D02*
X246299D01*
X248631Y366633D01*
Y367216D01*
X248048Y367799D01*
X246882D01*
X246299Y367216D01*
X242800Y377799D02*
Y375466D01*
X243966Y374300D01*
X245133Y375466D01*
Y377799D01*
X246299Y374300D02*
X247465D01*
X246882D01*
Y377799D01*
X246299Y377216D01*
X262133Y465216D02*
X261549Y465799D01*
X260383D01*
X259800Y465216D01*
Y462883D01*
X260383Y462300D01*
X261549D01*
X262133Y462883D01*
X263299Y464633D02*
Y462883D01*
X263882Y462300D01*
X265631D01*
Y464633D01*
X266798D02*
Y462300D01*
Y463466D01*
X267381Y464049D01*
X267964Y464633D01*
X268547D01*
X270297D02*
Y462300D01*
Y463466D01*
X270880Y464049D01*
X271463Y464633D01*
X272046D01*
X275545Y462300D02*
X274379D01*
X273796Y462883D01*
Y464049D01*
X274379Y464633D01*
X275545D01*
X276128Y464049D01*
Y463466D01*
X273796D01*
X277294Y462300D02*
Y464633D01*
X279044D01*
X279627Y464049D01*
Y462300D01*
X281376Y465216D02*
Y464633D01*
X280793D01*
X281960D01*
X281376D01*
Y462883D01*
X281960Y462300D01*
X292249Y468626D02*
X288751D01*
Y470376D01*
X289334Y470959D01*
X290500D01*
X291083Y470376D01*
Y468626D01*
Y469793D02*
X292249Y470959D01*
Y472125D02*
Y473292D01*
Y472708D01*
X288751D01*
X289334Y472125D01*
Y475041D02*
X288751Y475624D01*
Y476790D01*
X289334Y477374D01*
X289917D01*
X290500Y476790D01*
X291083Y477374D01*
X291666D01*
X292249Y476790D01*
Y475624D01*
X291666Y475041D01*
X291083D01*
X290500Y475624D01*
X289917Y475041D01*
X289334D01*
X290500Y475624D02*
Y476790D01*
X292249Y447126D02*
X288751D01*
Y448876D01*
X289334Y449459D01*
X290500D01*
X291083Y448876D01*
Y447126D01*
Y448293D02*
X292249Y449459D01*
Y450625D02*
Y451792D01*
Y451208D01*
X288751D01*
X289334Y450625D01*
X288751Y453541D02*
Y455874D01*
X289334D01*
X291666Y453541D01*
X292249D01*
Y425626D02*
X288751D01*
Y427376D01*
X289334Y427959D01*
X290500D01*
X291083Y427376D01*
Y425626D01*
Y426793D02*
X292249Y427959D01*
Y429125D02*
Y430292D01*
Y429708D01*
X288751D01*
X289334Y429125D01*
X288751Y434374D02*
X289334Y433207D01*
X290500Y432041D01*
X291666D01*
X292249Y432624D01*
Y433790D01*
X291666Y434374D01*
X291083D01*
X290500Y433790D01*
Y432041D01*
X463500Y414334D02*
Y416666D01*
X462917Y417249D01*
X461751D01*
X461167Y416666D01*
Y414334D01*
X461751Y413751D01*
X462917D01*
X462334Y414917D02*
X463500Y413751D01*
X462917D02*
X463500Y414334D01*
X464666Y413751D02*
X465833D01*
X465249D01*
Y417249D01*
X464666Y416666D01*
X331084Y325251D02*
Y328749D01*
X332834D01*
X333417Y328166D01*
Y327000D01*
X332834Y326417D01*
X331084D01*
X332251D02*
X333417Y325251D01*
X334583Y325834D02*
X335166Y325251D01*
X336333D01*
X336916Y325834D01*
Y328166D01*
X336333Y328749D01*
X335166D01*
X334583Y328166D01*
Y327583D01*
X335166Y327000D01*
X336916D01*
X357210Y384751D02*
Y388249D01*
X358959D01*
X359542Y387666D01*
Y386500D01*
X358959Y385917D01*
X357210D01*
X360708Y384751D02*
X361875D01*
X361292D01*
Y388249D01*
X360708Y387666D01*
X363624Y384751D02*
X364790D01*
X364207D01*
Y388249D01*
X363624Y387666D01*
X255084Y385251D02*
Y388749D01*
X256834D01*
X257417Y388166D01*
Y387000D01*
X256834Y386417D01*
X255084D01*
X260333Y385251D02*
Y388749D01*
X258583Y387000D01*
X260916D01*
X390126Y425251D02*
Y428749D01*
X391876D01*
X392459Y428166D01*
Y427000D01*
X391876Y426417D01*
X390126D01*
X391293D02*
X392459Y425251D01*
X393625D02*
X394792D01*
X394208D01*
Y428749D01*
X393625Y428166D01*
X398874Y428749D02*
X396541D01*
Y427000D01*
X397707Y427583D01*
X398290D01*
X398874Y427000D01*
Y425834D01*
X398290Y425251D01*
X397124D01*
X396541Y425834D01*
X375378Y425251D02*
Y428749D01*
X377128D01*
X377711Y428166D01*
Y427000D01*
X377128Y426417D01*
X375378D01*
X376545D02*
X377711Y425251D01*
X378877D02*
X380044D01*
X379460D01*
Y428749D01*
X378877Y428166D01*
X383542Y425251D02*
Y428749D01*
X381793Y427000D01*
X384126D01*
X360630Y425251D02*
Y428749D01*
X362380D01*
X362963Y428166D01*
Y427000D01*
X362380Y426417D01*
X360630D01*
X361797D02*
X362963Y425251D01*
X364129D02*
X365296D01*
X364712D01*
Y428749D01*
X364129Y428166D01*
X367045D02*
X367628Y428749D01*
X368794D01*
X369377Y428166D01*
Y427583D01*
X368794Y427000D01*
X368211D01*
X368794D01*
X369377Y426417D01*
Y425834D01*
X368794Y425251D01*
X367628D01*
X367045Y425834D01*
X335084Y425251D02*
Y428749D01*
X336834D01*
X337417Y428166D01*
Y427000D01*
X336834Y426417D01*
X335084D01*
X336251D02*
X337417Y425251D01*
X340916Y428749D02*
X338583D01*
Y427000D01*
X339749Y427583D01*
X340333D01*
X340916Y427000D01*
Y425834D01*
X340333Y425251D01*
X339166D01*
X338583Y425834D01*
X274084Y438251D02*
Y441749D01*
X275834D01*
X276417Y441166D01*
Y440000D01*
X275834Y439417D01*
X274084D01*
X277583Y441166D02*
X278166Y441749D01*
X279333D01*
X279916Y441166D01*
Y440583D01*
X279333Y440000D01*
X279916Y439417D01*
Y438834D01*
X279333Y438251D01*
X278166D01*
X277583Y438834D01*
Y439417D01*
X278166Y440000D01*
X277583Y440583D01*
Y441166D01*
X278166Y440000D02*
X279333D01*
X347084Y432751D02*
Y436249D01*
X348834D01*
X349417Y435666D01*
Y434500D01*
X348834Y433917D01*
X347084D01*
X352916Y436249D02*
X351749Y435666D01*
X350583Y434500D01*
Y433334D01*
X351166Y432751D01*
X352333D01*
X352916Y433334D01*
Y433917D01*
X352333Y434500D01*
X350583D01*
X305084Y259751D02*
Y263249D01*
X306834D01*
X307417Y262666D01*
Y261500D01*
X306834Y260917D01*
X305084D01*
X308583Y260334D02*
X309166Y259751D01*
X310333D01*
X310916Y260334D01*
Y262666D01*
X310333Y263249D01*
X309166D01*
X308583Y262666D01*
Y262083D01*
X309166Y261500D01*
X310916D01*
X332167Y259251D02*
Y262749D01*
X333917D01*
X334500Y262166D01*
Y261000D01*
X333917Y260417D01*
X332167D01*
X335666Y259251D02*
X336833D01*
X336249D01*
Y262749D01*
X335666Y262166D01*
X382626Y266251D02*
Y269749D01*
X384376D01*
X384959Y269166D01*
Y268000D01*
X384376Y267417D01*
X382626D01*
X383793D02*
X384959Y266251D01*
X386125D02*
X387292D01*
X386708D01*
Y269749D01*
X386125Y269166D01*
X391374Y266251D02*
X389041D01*
X391374Y268583D01*
Y269166D01*
X390790Y269749D01*
X389624D01*
X389041Y269166D01*
X407126Y260251D02*
Y263749D01*
X408876D01*
X409459Y263166D01*
Y262000D01*
X408876Y261417D01*
X407126D01*
X410625Y260251D02*
X411792D01*
X411208D01*
Y263749D01*
X410625Y263166D01*
X413541D02*
X414124Y263749D01*
X415290D01*
X415874Y263166D01*
Y260834D01*
X415290Y260251D01*
X414124D01*
X413541Y260834D01*
Y263166D01*
X355835Y317751D02*
Y321249D01*
X357584D01*
X358167Y320666D01*
Y319500D01*
X357584Y318917D01*
X355835D01*
X357001D02*
X358167Y317751D01*
X359334Y321249D02*
X361666Y317751D01*
Y321249D02*
X359334Y317751D01*
X362833Y319500D02*
X365165D01*
X363999Y320666D02*
Y318334D01*
X356835Y279751D02*
Y283249D01*
X358584D01*
X359167Y282666D01*
Y281500D01*
X358584Y280917D01*
X356835D01*
X358001D02*
X359167Y279751D01*
X360334Y283249D02*
X362666Y279751D01*
Y283249D02*
X360334Y279751D01*
X363833Y281500D02*
X366165D01*
X364554Y374198D02*
X364605Y371283D01*
X365198Y370710D01*
X366364Y370730D01*
X366937Y371324D01*
X366886Y374239D01*
X370446Y370802D02*
X368114Y370761D01*
X370405Y373134D01*
X370395Y373717D01*
X369802Y374290D01*
X368636Y374270D01*
X368063Y373676D01*
X347084Y425251D02*
Y428749D01*
X348834D01*
X349417Y428166D01*
Y427000D01*
X348834Y426417D01*
X347084D01*
X348251D02*
X349417Y425251D01*
X350583Y428749D02*
X352916D01*
Y428166D01*
X350583Y425834D01*
Y425251D01*
X292249Y402584D02*
X288751D01*
Y404334D01*
X289334Y404917D01*
X290500D01*
X291083Y404334D01*
Y402584D01*
Y403751D02*
X292249Y404917D01*
Y407833D02*
X288751D01*
X290500Y406083D01*
Y408416D01*
X329746Y402584D02*
X326247D01*
Y404334D01*
X326830Y404917D01*
X327996D01*
X328579Y404334D01*
Y402584D01*
Y403751D02*
X329746Y404917D01*
X326830Y406083D02*
X326247Y406666D01*
Y407833D01*
X326830Y408416D01*
X327413D01*
X327996Y407833D01*
Y407249D01*
Y407833D01*
X328579Y408416D01*
X329162D01*
X329746Y407833D01*
Y406666D01*
X329162Y406083D01*
X307249Y413084D02*
X303751D01*
Y414834D01*
X304334Y415417D01*
X305500D01*
X306083Y414834D01*
Y413084D01*
Y414251D02*
X307249Y415417D01*
Y418916D02*
Y416583D01*
X304917Y418916D01*
X304334D01*
X303751Y418333D01*
Y417166D01*
X304334Y416583D01*
X325584Y382751D02*
Y386249D01*
X327334D01*
X327917Y385666D01*
Y384500D01*
X327334Y383917D01*
X325584D01*
X326751D02*
X327917Y382751D01*
X331416Y386249D02*
X330249Y385666D01*
X329083Y384500D01*
Y383334D01*
X329666Y382751D01*
X330833D01*
X331416Y383334D01*
Y383917D01*
X330833Y384500D01*
X329083D01*
X278251Y372416D02*
X281749D01*
Y370666D01*
X281166Y370083D01*
X280000D01*
X279417Y370666D01*
Y372416D01*
Y371249D02*
X278251Y370083D01*
X281166Y368917D02*
X281749Y368334D01*
Y367167D01*
X281166Y366584D01*
X280583D01*
X280000Y367167D01*
X279417Y366584D01*
X278834D01*
X278251Y367167D01*
Y368334D01*
X278834Y368917D01*
X279417D01*
X280000Y368334D01*
X280583Y368917D01*
X281166D01*
X280000Y368334D02*
Y367167D01*
X371210Y266251D02*
Y269749D01*
X372959D01*
X373542Y269166D01*
Y268000D01*
X372959Y267417D01*
X371210D01*
X372376D02*
X373542Y266251D01*
X374708D02*
X375875D01*
X375292D01*
Y269749D01*
X374708Y269166D01*
X377624Y266251D02*
X378790D01*
X378207D01*
Y269749D01*
X377624Y269166D01*
X325126Y268751D02*
Y272249D01*
X326876D01*
X327459Y271666D01*
Y270500D01*
X326876Y269917D01*
X325126D01*
X326293D02*
X327459Y268751D01*
X328625D02*
X329792D01*
X329208D01*
Y272249D01*
X328625Y271666D01*
X331541D02*
X332124Y272249D01*
X333290D01*
X333874Y271666D01*
Y269334D01*
X333290Y268751D01*
X332124D01*
X331541Y269334D01*
Y271666D01*
X393584Y432751D02*
Y436249D01*
X395334D01*
X395917Y435666D01*
Y434500D01*
X395334Y433917D01*
X393584D01*
X397083Y436249D02*
X399416D01*
Y435666D01*
X397083Y433334D01*
Y432751D01*
X460749Y296084D02*
X457251D01*
Y297834D01*
X457834Y298417D01*
X459000D01*
X459583Y297834D01*
Y296084D01*
X457834Y299583D02*
X457251Y300166D01*
Y301333D01*
X457834Y301916D01*
X458417D01*
X459000Y301333D01*
Y300749D01*
Y301333D01*
X459583Y301916D01*
X460166D01*
X460749Y301333D01*
Y300166D01*
X460166Y299583D01*
X291584Y259751D02*
Y263249D01*
X293334D01*
X293917Y262666D01*
Y261500D01*
X293334Y260917D01*
X291584D01*
X297416Y259751D02*
X295083D01*
X297416Y262083D01*
Y262666D01*
X296833Y263249D01*
X295666D01*
X295083Y262666D01*
X437000Y404249D02*
X435834D01*
X436417D01*
Y401334D01*
X435834Y400751D01*
X435251D01*
X434667Y401334D01*
X438166Y400751D02*
X439333D01*
X438749D01*
Y404249D01*
X438166Y403666D01*
X392667Y403749D02*
Y400251D01*
X394417D01*
X395000Y400834D01*
Y403166D01*
X394417Y403749D01*
X392667D01*
X396166Y400251D02*
X397333D01*
X396749D01*
Y403749D01*
X396166Y403166D01*
X406042Y343666D02*
X405459Y344249D01*
X404293D01*
X403710Y343666D01*
Y341334D01*
X404293Y340751D01*
X405459D01*
X406042Y341334D01*
X407208Y340751D02*
X408375D01*
X407792D01*
Y344249D01*
X407208Y343666D01*
X410124Y340751D02*
X411290D01*
X410707D01*
Y344249D01*
X410124Y343666D01*
X477834Y384417D02*
X477251Y383834D01*
Y382667D01*
X477834Y382084D01*
X480166D01*
X480749Y382667D01*
Y383834D01*
X480166Y384417D01*
X477834Y385583D02*
X477251Y386166D01*
Y387333D01*
X477834Y387916D01*
X478417D01*
X479000Y387333D01*
X479583Y387916D01*
X480166D01*
X480749Y387333D01*
Y386166D01*
X480166Y385583D01*
X479583D01*
X479000Y386166D01*
X478417Y385583D01*
X477834D01*
X479000Y386166D02*
Y387333D01*
X299666Y283083D02*
X300249Y283666D01*
Y284833D01*
X299666Y285416D01*
X297334D01*
X296751Y284833D01*
Y283666D01*
X297334Y283083D01*
X299666Y281917D02*
X300249Y281334D01*
Y280167D01*
X299666Y279584D01*
X299083D01*
X298500Y280167D01*
Y280751D01*
Y280167D01*
X297917Y279584D01*
X297334D01*
X296751Y280167D01*
Y281334D01*
X297334Y281917D01*
X306666Y283083D02*
X307249Y283666D01*
Y284833D01*
X306666Y285416D01*
X304334D01*
X303751Y284833D01*
Y283666D01*
X304334Y283083D01*
X303751Y279584D02*
Y281917D01*
X306083Y279584D01*
X306666D01*
X307249Y280167D01*
Y281334D01*
X306666Y281917D01*
X358000Y472666D02*
X357417Y473249D01*
X356251D01*
X355667Y472666D01*
Y470334D01*
X356251Y469751D01*
X357417D01*
X358000Y470334D01*
X359166Y469751D02*
X360333D01*
X359749D01*
Y473249D01*
X359166Y472666D01*
X319166Y283083D02*
X319749Y283666D01*
Y284833D01*
X319166Y285416D01*
X316834D01*
X316251Y284833D01*
Y283666D01*
X316834Y283083D01*
X319749Y281917D02*
Y279584D01*
X319166D01*
X316834Y281917D01*
X316251D01*
X287166Y283083D02*
X287749Y283666D01*
Y284833D01*
X287166Y285416D01*
X284834D01*
X284251Y284833D01*
Y283666D01*
X284834Y283083D01*
X284251Y280167D02*
X287749D01*
X286000Y281917D01*
Y279584D01*
X314417Y370666D02*
X313834Y371249D01*
X312667D01*
X312084Y370666D01*
Y368334D01*
X312667Y367751D01*
X313834D01*
X314417Y368334D01*
X317916Y371249D02*
X316749Y370666D01*
X315583Y369500D01*
Y368334D01*
X316166Y367751D01*
X317333D01*
X317916Y368334D01*
Y368917D01*
X317333Y369500D01*
X315583D01*
X292417Y370666D02*
X291834Y371249D01*
X290667D01*
X290084Y370666D01*
Y368334D01*
X290667Y367751D01*
X291834D01*
X292417Y368334D01*
X295916Y371249D02*
X293583D01*
Y369500D01*
X294749Y370083D01*
X295333D01*
X295916Y369500D01*
Y368334D01*
X295333Y367751D01*
X294166D01*
X293583Y368334D01*
X280666Y379583D02*
X281249Y380166D01*
Y381333D01*
X280666Y381916D01*
X278334D01*
X277751Y381333D01*
Y380166D01*
X278334Y379583D01*
Y378417D02*
X277751Y377834D01*
Y376667D01*
X278334Y376084D01*
X280666D01*
X281249Y376667D01*
Y377834D01*
X280666Y378417D01*
X280083D01*
X279500Y377834D01*
Y376084D01*
D17*
X427000Y250499D02*
Y248000D01*
X428666D01*
X430749D02*
X429916D01*
X429499Y248416D01*
Y249250D01*
X429916Y249666D01*
X430749D01*
X431165Y249250D01*
Y248833D01*
X429499D01*
X432415Y248000D02*
X433248D01*
X433665Y248416D01*
Y249250D01*
X433248Y249666D01*
X432415D01*
X431998Y249250D01*
Y248416D01*
X432415Y248000D01*
X438663D02*
X438246Y248416D01*
X437830Y248000D01*
X437413D01*
X436997Y248416D01*
Y248833D01*
X437413Y249250D01*
X436997Y249666D01*
Y250083D01*
X437413Y250499D01*
X437830D01*
X438246Y250083D01*
Y249666D01*
X437830Y249250D01*
X438246Y248833D01*
Y248416D01*
X438663Y249250D02*
X438246Y248833D01*
X437413Y249250D02*
X437830D01*
X441995Y248000D02*
Y250499D01*
X443661Y248000D01*
Y250499D01*
X444911Y249666D02*
X445744D01*
X446161Y249250D01*
Y248000D01*
X444911D01*
X444494Y248416D01*
X444911Y248833D01*
X446161D01*
X446993Y249666D02*
X447827Y248000D01*
X448660Y249666D01*
X450742Y248000D02*
X449909D01*
X449493Y248416D01*
Y249250D01*
X449909Y249666D01*
X450742D01*
X451159Y249250D01*
Y248833D01*
X449493D01*
X453241Y248000D02*
X452408D01*
X451992Y248416D01*
Y249250D01*
X452408Y249666D01*
X453241D01*
X453658Y249250D01*
Y248833D01*
X451992D01*
X454491Y248000D02*
X455324D01*
X454908D01*
Y250499D01*
X454491D01*
X456990Y249666D02*
X457823D01*
X458240Y249250D01*
Y248000D01*
X456990D01*
X456574Y248416D01*
X456990Y248833D01*
X458240D01*
D18*
X426700Y256699D02*
Y253700D01*
X428699D01*
X429699Y256699D02*
X431698D01*
X430699D01*
Y253700D01*
X434697Y256199D02*
X434198Y256699D01*
X433198D01*
X432698Y256199D01*
Y254200D01*
X433198Y253700D01*
X434198D01*
X434697Y254200D01*
X437696Y253700D02*
X435697D01*
X437696Y255699D01*
Y256199D01*
X437197Y256699D01*
X436197D01*
X435697Y256199D01*
X438696Y254200D02*
X439196Y253700D01*
X440196D01*
X440695Y254200D01*
Y256199D01*
X440196Y256699D01*
X439196D01*
X438696Y256199D01*
Y255699D01*
X439196Y255200D01*
X440695D01*
X443195Y253700D02*
Y256699D01*
X441695Y255200D01*
X443694D01*
X444694Y254200D02*
X445194Y253700D01*
X446194D01*
X446694Y254200D01*
Y256199D01*
X446194Y256699D01*
X445194D01*
X444694Y256199D01*
Y255699D01*
X445194Y255200D01*
X446694D01*
X450692Y256699D02*
X452692D01*
X451692D01*
Y253700D01*
X455191D02*
X454191D01*
X453691Y254200D01*
Y255200D01*
X454191Y255699D01*
X455191D01*
X455691Y255200D01*
Y254700D01*
X453691D01*
X456690Y253700D02*
X458190D01*
X458690Y254200D01*
X458190Y254700D01*
X457190D01*
X456690Y255200D01*
X457190Y255699D01*
X458690D01*
X460189Y256199D02*
Y255699D01*
X459689D01*
X460689D01*
X460189D01*
Y254200D01*
X460689Y253700D01*
X465188Y256699D02*
Y253700D01*
X466687D01*
X467187Y254200D01*
Y254700D01*
X466687Y255200D01*
X465188D01*
X466687D01*
X467187Y255699D01*
Y256199D01*
X466687Y256699D01*
X465188D01*
X468686Y253700D02*
X469686D01*
X470186Y254200D01*
Y255200D01*
X469686Y255699D01*
X468686D01*
X468187Y255200D01*
Y254200D01*
X468686Y253700D01*
X471686Y255699D02*
X472685D01*
X473185Y255200D01*
Y253700D01*
X471686D01*
X471186Y254200D01*
X471686Y254700D01*
X473185D01*
X474185Y255699D02*
Y253700D01*
Y254700D01*
X474684Y255200D01*
X475184Y255699D01*
X475684D01*
X479183Y256699D02*
Y253700D01*
X477683D01*
X477184Y254200D01*
Y255200D01*
X477683Y255699D01*
X479183D01*
X241670Y411999D02*
Y409334D01*
X243003Y408001D01*
X244336Y409334D01*
Y411999D01*
X245668D02*
Y408001D01*
X247668D01*
X248334Y408667D01*
Y409334D01*
X247668Y410000D01*
X245668D01*
X247668D01*
X248334Y410666D01*
Y411333D01*
X247668Y411999D01*
X245668D01*
X249667Y408001D02*
Y410666D01*
X251000Y411999D01*
X252333Y410666D01*
Y408001D01*
Y410000D01*
X249667D01*
X253666Y411999D02*
X256332D01*
X254999D01*
Y408001D01*
X257664D02*
Y411999D01*
X258997Y410666D01*
X260330Y411999D01*
Y408001D01*
X241670Y431499D02*
Y428834D01*
X243003Y427501D01*
X244336Y428834D01*
Y431499D01*
X245668D02*
Y427501D01*
X247668D01*
X248334Y428167D01*
Y428834D01*
X247668Y429500D01*
X245668D01*
X247668D01*
X248334Y430166D01*
Y430833D01*
X247668Y431499D01*
X245668D01*
X249667Y427501D02*
Y430166D01*
X251000Y431499D01*
X252333Y430166D01*
Y427501D01*
Y429500D01*
X249667D01*
X253666Y431499D02*
X256332D01*
X254999D01*
Y427501D01*
X257664D02*
Y431499D01*
X259664D01*
X260330Y430833D01*
Y429500D01*
X259664Y428834D01*
X257664D01*
M02*
