G04*
G04 #@! TF.GenerationSoftware,Altium Limited,Altium Designer,21.6.4 (81)*
G04*
G04 Layer_Physical_Order=2*
G04 Layer_Color=16711680*
%FSLAX25Y25*%
%MOIN*%
G70*
G04*
G04 #@! TF.SameCoordinates,8AD03C7C-95CA-41BD-B497-73EC2F137F48*
G04*
G04*
G04 #@! TF.FilePolarity,Positive*
G04*
G01*
G75*
%ADD10C,0.01000*%
%ADD55C,0.01500*%
%ADD57C,0.02000*%
%ADD59C,0.11811*%
%ADD60C,0.07677*%
%ADD61R,0.07677X0.07677*%
%ADD62R,0.06500X0.06500*%
%ADD63C,0.06500*%
%ADD64C,0.10000*%
%ADD65C,0.05906*%
%ADD66R,0.05906X0.05906*%
%ADD67R,0.05906X0.05906*%
%ADD68C,0.05000*%
%ADD69C,0.01968*%
%ADD70C,0.02600*%
G36*
X492971Y236000D02*
X239500D01*
Y490500D01*
X492971D01*
Y236000D01*
D02*
G37*
%LPC*%
G36*
X393839Y459339D02*
X384161D01*
Y449661D01*
X393839D01*
Y459339D01*
D02*
G37*
G36*
X347024D02*
X337347D01*
Y449661D01*
X347024D01*
Y459339D01*
D02*
G37*
G36*
X276020Y452953D02*
X274980D01*
X273974Y452683D01*
X273073Y452163D01*
X272337Y451427D01*
X271817Y450526D01*
X271547Y449520D01*
Y448480D01*
X271817Y447474D01*
X272337Y446573D01*
X273073Y445837D01*
X273974Y445317D01*
X274980Y445047D01*
X276020D01*
X277026Y445317D01*
X277927Y445837D01*
X278663Y446573D01*
X279183Y447474D01*
X279453Y448480D01*
Y449520D01*
X279183Y450526D01*
X278663Y451427D01*
X277927Y452163D01*
X277026Y452683D01*
X276020Y452953D01*
D02*
G37*
G36*
X269453D02*
X261547D01*
Y445047D01*
X269453D01*
Y452953D01*
D02*
G37*
G36*
X446060Y432250D02*
X444941D01*
X443860Y431960D01*
X442890Y431401D01*
X442099Y430610D01*
X441540Y429640D01*
X441250Y428559D01*
Y427441D01*
X441540Y426360D01*
X442099Y425390D01*
X442890Y424599D01*
X443860Y424040D01*
X444941Y423750D01*
X446060D01*
X447140Y424040D01*
X448110Y424599D01*
X448901Y425390D01*
X449460Y426360D01*
X449750Y427441D01*
Y428559D01*
X449460Y429640D01*
X448901Y430610D01*
X448110Y431401D01*
X447140Y431960D01*
X446060Y432250D01*
D02*
G37*
G36*
X439750D02*
X431250D01*
Y423750D01*
X439750D01*
Y432250D01*
D02*
G37*
G36*
X250091Y426500D02*
X248909D01*
X247750Y426269D01*
X246658Y425817D01*
X245675Y425161D01*
X244840Y424325D01*
X244183Y423342D01*
X243731Y422250D01*
X243500Y421091D01*
Y419909D01*
X243731Y418750D01*
X244183Y417658D01*
X244840Y416675D01*
X245675Y415839D01*
X246658Y415183D01*
X247750Y414731D01*
X248909Y414500D01*
X250091D01*
X251250Y414731D01*
X252342Y415183D01*
X253325Y415839D01*
X254160Y416675D01*
X254817Y417658D01*
X255269Y418750D01*
X255500Y419909D01*
Y421091D01*
X255269Y422250D01*
X254817Y423342D01*
X254160Y424325D01*
X253325Y425161D01*
X252342Y425817D01*
X251250Y426269D01*
X250091Y426500D01*
D02*
G37*
G36*
X369952Y459339D02*
X368678D01*
X367447Y459009D01*
X366344Y458372D01*
X365443Y457471D01*
X364806Y456368D01*
X364476Y455137D01*
Y453863D01*
X364806Y452632D01*
X365443Y451529D01*
X366344Y450628D01*
X367447Y449991D01*
X367531Y449969D01*
Y440554D01*
X339368Y412391D01*
X338961Y412500D01*
X338039D01*
X337149Y412261D01*
X336351Y411801D01*
X335699Y411149D01*
X335239Y410351D01*
X335000Y409461D01*
Y408539D01*
X335239Y407649D01*
X335699Y406851D01*
X336351Y406199D01*
X337149Y405738D01*
X338039Y405500D01*
X338961D01*
X339851Y405738D01*
X340649Y406199D01*
X341301Y406851D01*
X341761Y407649D01*
X342000Y408539D01*
Y409461D01*
X341891Y409868D01*
X370577Y438553D01*
X370577Y438553D01*
X370963Y439132D01*
X371099Y439815D01*
Y449969D01*
X371183Y449991D01*
X372286Y450628D01*
X373187Y451529D01*
X373824Y452632D01*
X374153Y453863D01*
Y455137D01*
X373824Y456368D01*
X373187Y457471D01*
X372286Y458372D01*
X371183Y459009D01*
X369952Y459339D01*
D02*
G37*
G36*
X457020Y403453D02*
X455980D01*
X454974Y403183D01*
X454073Y402663D01*
X453337Y401927D01*
X452817Y401026D01*
X452547Y400020D01*
Y398980D01*
X452817Y397974D01*
X453337Y397073D01*
X454073Y396337D01*
X454974Y395817D01*
X455980Y395547D01*
X457020D01*
X458026Y395817D01*
X458927Y396337D01*
X459663Y397073D01*
X460183Y397974D01*
X460453Y398980D01*
Y400020D01*
X460183Y401026D01*
X459663Y401927D01*
X458927Y402663D01*
X458026Y403183D01*
X457020Y403453D01*
D02*
G37*
G36*
X456060Y432250D02*
X454941D01*
X453860Y431960D01*
X452890Y431401D01*
X452099Y430610D01*
X451540Y429640D01*
X451250Y428559D01*
Y427441D01*
X451540Y426360D01*
X452099Y425390D01*
X452890Y424599D01*
X453860Y424040D01*
X454941Y423750D01*
X456060D01*
X456696Y423920D01*
X464461Y416155D01*
Y403453D01*
X462547D01*
Y395547D01*
X464461D01*
Y394392D01*
X462608Y392539D01*
X440345D01*
X436442Y396442D01*
X435780Y396884D01*
X435000Y397039D01*
X372500D01*
X371720Y396884D01*
X371058Y396442D01*
X323058Y348442D01*
X322616Y347780D01*
X322461Y347000D01*
Y316845D01*
X313155Y307539D01*
X304864D01*
X304801Y307649D01*
X304149Y308301D01*
X303351Y308762D01*
X302461Y309000D01*
X301539D01*
X300649Y308762D01*
X299851Y308301D01*
X299199Y307649D01*
X298739Y306851D01*
X298500Y305961D01*
Y305039D01*
X298739Y304149D01*
X299199Y303351D01*
X299851Y302699D01*
X300649Y302238D01*
X301539Y302000D01*
X302461D01*
X303351Y302238D01*
X304149Y302699D01*
X304801Y303351D01*
X304864Y303461D01*
X314000D01*
X314780Y303616D01*
X315442Y304058D01*
X325942Y314558D01*
X326384Y315220D01*
X326539Y316000D01*
Y346155D01*
X373345Y392961D01*
X434155D01*
X438058Y389058D01*
X438720Y388616D01*
X439500Y388461D01*
X463453D01*
X464233Y388616D01*
X464895Y389058D01*
X467942Y392105D01*
X468384Y392767D01*
X468539Y393547D01*
Y395547D01*
X470453D01*
Y403453D01*
X468539D01*
Y417000D01*
X468384Y417780D01*
X467942Y418442D01*
X459580Y426804D01*
X459750Y427441D01*
Y428559D01*
X459460Y429640D01*
X458901Y430610D01*
X458110Y431401D01*
X457140Y431960D01*
X456060Y432250D01*
D02*
G37*
G36*
X364453Y399453D02*
X356547D01*
Y391547D01*
X364453D01*
Y399453D01*
D02*
G37*
G36*
X260953Y380953D02*
X253047D01*
Y373047D01*
X260953D01*
Y380953D01*
D02*
G37*
G36*
X257520Y370953D02*
X256480D01*
X255474Y370683D01*
X254573Y370163D01*
X253837Y369427D01*
X253317Y368526D01*
X253047Y367520D01*
Y366480D01*
X253317Y365474D01*
X253837Y364573D01*
X254573Y363837D01*
X255474Y363317D01*
X256480Y363047D01*
X257520D01*
X258526Y363317D01*
X259427Y363837D01*
X260163Y364573D01*
X260683Y365474D01*
X260953Y366480D01*
Y367520D01*
X260683Y368526D01*
X260163Y369427D01*
X259427Y370163D01*
X258526Y370683D01*
X257520Y370953D01*
D02*
G37*
G36*
Y360953D02*
X256480D01*
X255474Y360683D01*
X254573Y360163D01*
X253837Y359427D01*
X253317Y358526D01*
X253047Y357520D01*
Y356480D01*
X253317Y355474D01*
X253837Y354573D01*
X254573Y353837D01*
X255474Y353317D01*
X256480Y353047D01*
X257520D01*
X258526Y353317D01*
X259427Y353837D01*
X260163Y354573D01*
X260683Y355474D01*
X260953Y356480D01*
Y357520D01*
X260683Y358526D01*
X260163Y359427D01*
X259427Y360163D01*
X258526Y360683D01*
X257520Y360953D01*
D02*
G37*
G36*
Y350953D02*
X256480D01*
X255474Y350683D01*
X254573Y350163D01*
X253837Y349427D01*
X253317Y348526D01*
X253047Y347520D01*
Y346480D01*
X253317Y345474D01*
X253837Y344573D01*
X254573Y343837D01*
X255474Y343317D01*
X256480Y343047D01*
X257520D01*
X258526Y343317D01*
X259427Y343837D01*
X260163Y344573D01*
X260683Y345474D01*
X260953Y346480D01*
Y347520D01*
X260683Y348526D01*
X260163Y349427D01*
X259427Y350163D01*
X258526Y350683D01*
X257520Y350953D01*
D02*
G37*
G36*
Y340953D02*
X256480D01*
X255474Y340683D01*
X254573Y340163D01*
X253837Y339427D01*
X253317Y338526D01*
X253047Y337520D01*
Y336480D01*
X253317Y335474D01*
X253837Y334573D01*
X254573Y333837D01*
X255474Y333317D01*
X256480Y333047D01*
X257520D01*
X258526Y333317D01*
X259427Y333837D01*
X260163Y334573D01*
X260683Y335474D01*
X260953Y336480D01*
Y337520D01*
X260683Y338526D01*
X260163Y339427D01*
X259427Y340163D01*
X258526Y340683D01*
X257520Y340953D01*
D02*
G37*
G36*
Y330953D02*
X256480D01*
X255474Y330683D01*
X254573Y330163D01*
X253837Y329427D01*
X253317Y328526D01*
X253047Y327520D01*
Y326480D01*
X253317Y325474D01*
X253837Y324573D01*
X254573Y323837D01*
X255474Y323317D01*
X256480Y323047D01*
X257520D01*
X258526Y323317D01*
X259427Y323837D01*
X260163Y324573D01*
X260683Y325474D01*
X260953Y326480D01*
Y327520D01*
X260683Y328526D01*
X260163Y329427D01*
X259427Y330163D01*
X258526Y330683D01*
X257520Y330953D01*
D02*
G37*
G36*
Y320953D02*
X256480D01*
X255474Y320683D01*
X254573Y320163D01*
X253837Y319427D01*
X253317Y318526D01*
X253047Y317520D01*
Y316480D01*
X253317Y315474D01*
X253837Y314573D01*
X254573Y313837D01*
X255474Y313317D01*
X256480Y313047D01*
X257520D01*
X258526Y313317D01*
X259427Y313837D01*
X260163Y314573D01*
X260683Y315474D01*
X260953Y316480D01*
Y317520D01*
X260683Y318526D01*
X260163Y319427D01*
X259427Y320163D01*
X258526Y320683D01*
X257520Y320953D01*
D02*
G37*
G36*
X361591Y317000D02*
X360409D01*
X359250Y316769D01*
X358158Y316317D01*
X357175Y315661D01*
X356340Y314825D01*
X355683Y313842D01*
X355231Y312750D01*
X355000Y311591D01*
Y310409D01*
X355231Y309250D01*
X355683Y308158D01*
X356340Y307175D01*
X357175Y306340D01*
X358158Y305683D01*
X359250Y305231D01*
X360409Y305000D01*
X361591D01*
X362750Y305231D01*
X363842Y305683D01*
X364825Y306340D01*
X365661Y307175D01*
X366317Y308158D01*
X366769Y309250D01*
X367000Y310409D01*
Y311591D01*
X366769Y312750D01*
X366317Y313842D01*
X365661Y314825D01*
X364825Y315661D01*
X363842Y316317D01*
X362750Y316769D01*
X361591Y317000D01*
D02*
G37*
G36*
X257520Y310953D02*
X256480D01*
X255474Y310683D01*
X254573Y310163D01*
X253837Y309427D01*
X253317Y308526D01*
X253047Y307520D01*
Y306480D01*
X253317Y305474D01*
X253837Y304573D01*
X254573Y303837D01*
X255474Y303317D01*
X256480Y303047D01*
X257520D01*
X258526Y303317D01*
X259427Y303837D01*
X260163Y304573D01*
X260683Y305474D01*
X260953Y306480D01*
Y307520D01*
X260683Y308526D01*
X260163Y309427D01*
X259427Y310163D01*
X258526Y310683D01*
X257520Y310953D01*
D02*
G37*
G36*
X468520Y307953D02*
X467480D01*
X466474Y307683D01*
X465573Y307163D01*
X464837Y306427D01*
X464317Y305526D01*
X464047Y304520D01*
Y303480D01*
X464317Y302474D01*
X464837Y301573D01*
X465573Y300837D01*
X466474Y300317D01*
X467480Y300047D01*
X468520D01*
X469526Y300317D01*
X470427Y300837D01*
X471163Y301573D01*
X471683Y302474D01*
X471953Y303480D01*
Y304520D01*
X471683Y305526D01*
X471163Y306427D01*
X470427Y307163D01*
X469526Y307683D01*
X468520Y307953D01*
D02*
G37*
G36*
X257520Y300953D02*
X256480D01*
X255474Y300683D01*
X254573Y300163D01*
X253837Y299427D01*
X253317Y298526D01*
X253047Y297520D01*
Y296480D01*
X253317Y295474D01*
X253837Y294573D01*
X254573Y293837D01*
X255474Y293317D01*
X256480Y293047D01*
X257520D01*
X258526Y293317D01*
X259427Y293837D01*
X260163Y294573D01*
X260683Y295474D01*
X260953Y296480D01*
Y297520D01*
X260683Y298526D01*
X260163Y299427D01*
X259427Y300163D01*
X258526Y300683D01*
X257520Y300953D01*
D02*
G37*
G36*
X471953Y297953D02*
X464047D01*
Y290047D01*
X471953D01*
Y297953D01*
D02*
G37*
G36*
X361591Y296500D02*
X360409D01*
X359250Y296269D01*
X358158Y295817D01*
X357175Y295161D01*
X356340Y294325D01*
X355683Y293342D01*
X355231Y292250D01*
X355000Y291091D01*
Y289909D01*
X355231Y288750D01*
X355683Y287658D01*
X356340Y286675D01*
X357175Y285840D01*
X358158Y285183D01*
X359250Y284731D01*
X360409Y284500D01*
X361591D01*
X362750Y284731D01*
X363842Y285183D01*
X364825Y285840D01*
X365661Y286675D01*
X366317Y287658D01*
X366769Y288750D01*
X367000Y289909D01*
Y291091D01*
X366769Y292250D01*
X366317Y293342D01*
X365661Y294325D01*
X364825Y295161D01*
X363842Y295817D01*
X362750Y296269D01*
X361591Y296500D01*
D02*
G37*
G36*
X257520Y290953D02*
X256480D01*
X255474Y290683D01*
X254573Y290163D01*
X253837Y289427D01*
X253317Y288526D01*
X253047Y287520D01*
Y286480D01*
X253317Y285474D01*
X253837Y284573D01*
X254573Y283837D01*
X255474Y283317D01*
X256480Y283047D01*
X257520D01*
X258526Y283317D01*
X259427Y283837D01*
X260163Y284573D01*
X260683Y285474D01*
X260953Y286480D01*
Y287520D01*
X260683Y288526D01*
X260163Y289427D01*
X259427Y290163D01*
X258526Y290683D01*
X257520Y290953D01*
D02*
G37*
G36*
Y280953D02*
X256480D01*
X255474Y280683D01*
X254573Y280163D01*
X253837Y279427D01*
X253317Y278526D01*
X253047Y277520D01*
Y276480D01*
X253317Y275474D01*
X253837Y274573D01*
X254573Y273837D01*
X255474Y273317D01*
X256480Y273047D01*
X257520D01*
X258526Y273317D01*
X259427Y273837D01*
X260163Y274573D01*
X260683Y275474D01*
X260953Y276480D01*
Y277520D01*
X260683Y278526D01*
X260163Y279427D01*
X259427Y280163D01*
X258526Y280683D01*
X257520Y280953D01*
D02*
G37*
G36*
Y270953D02*
X256480D01*
X255474Y270683D01*
X254573Y270163D01*
X253837Y269427D01*
X253317Y268526D01*
X253047Y267520D01*
Y266480D01*
X253317Y265474D01*
X253837Y264573D01*
X254573Y263837D01*
X255474Y263317D01*
X256480Y263047D01*
X257520D01*
X258526Y263317D01*
X259427Y263837D01*
X260163Y264573D01*
X260683Y265474D01*
X260953Y266480D01*
Y267520D01*
X260683Y268526D01*
X260163Y269427D01*
X259427Y270163D01*
X258526Y270683D01*
X257520Y270953D01*
D02*
G37*
G36*
X414953Y256953D02*
X407047D01*
Y249047D01*
X414953D01*
Y256953D01*
D02*
G37*
G36*
X401520D02*
X400480D01*
X399474Y256683D01*
X398573Y256163D01*
X397837Y255427D01*
X397317Y254526D01*
X397047Y253520D01*
Y252480D01*
X397317Y251474D01*
X397837Y250573D01*
X398573Y249837D01*
X399474Y249317D01*
X400480Y249047D01*
X401520D01*
X402526Y249317D01*
X403427Y249837D01*
X404163Y250573D01*
X404683Y251474D01*
X404953Y252480D01*
Y253520D01*
X404683Y254526D01*
X404163Y255427D01*
X403427Y256163D01*
X402526Y256683D01*
X401520Y256953D01*
D02*
G37*
G36*
X387020D02*
X385980D01*
X384974Y256683D01*
X384073Y256163D01*
X383337Y255427D01*
X382817Y254526D01*
X382547Y253520D01*
Y252480D01*
X382817Y251474D01*
X383337Y250573D01*
X384073Y249837D01*
X384974Y249317D01*
X385980Y249047D01*
X387020D01*
X388026Y249317D01*
X388927Y249837D01*
X389663Y250573D01*
X390183Y251474D01*
X390453Y252480D01*
Y253520D01*
X390183Y254526D01*
X389663Y255427D01*
X388927Y256163D01*
X388026Y256683D01*
X387020Y256953D01*
D02*
G37*
G36*
X377020D02*
X375980D01*
X374974Y256683D01*
X374073Y256163D01*
X373337Y255427D01*
X372817Y254526D01*
X372547Y253520D01*
Y252480D01*
X372817Y251474D01*
X373337Y250573D01*
X374073Y249837D01*
X374974Y249317D01*
X375980Y249047D01*
X377020D01*
X378026Y249317D01*
X378927Y249837D01*
X379663Y250573D01*
X380183Y251474D01*
X380453Y252480D01*
Y253520D01*
X380183Y254526D01*
X379663Y255427D01*
X378927Y256163D01*
X378026Y256683D01*
X377020Y256953D01*
D02*
G37*
G36*
X367020D02*
X365980D01*
X364974Y256683D01*
X364073Y256163D01*
X363337Y255427D01*
X362817Y254526D01*
X362547Y253520D01*
Y252480D01*
X362817Y251474D01*
X363337Y250573D01*
X364073Y249837D01*
X364974Y249317D01*
X365980Y249047D01*
X367020D01*
X368026Y249317D01*
X368927Y249837D01*
X369663Y250573D01*
X370183Y251474D01*
X370453Y252480D01*
Y253520D01*
X370183Y254526D01*
X369663Y255427D01*
X368927Y256163D01*
X368026Y256683D01*
X367020Y256953D01*
D02*
G37*
G36*
X357020D02*
X355980D01*
X354974Y256683D01*
X354073Y256163D01*
X353337Y255427D01*
X352817Y254526D01*
X352547Y253520D01*
Y252480D01*
X352817Y251474D01*
X353337Y250573D01*
X354073Y249837D01*
X354974Y249317D01*
X355980Y249047D01*
X357020D01*
X358026Y249317D01*
X358927Y249837D01*
X359663Y250573D01*
X360183Y251474D01*
X360453Y252480D01*
Y253520D01*
X360183Y254526D01*
X359663Y255427D01*
X358927Y256163D01*
X358026Y256683D01*
X357020Y256953D01*
D02*
G37*
G36*
X341957Y275800D02*
X341042D01*
X340197Y275450D01*
X339550Y274803D01*
X339200Y273957D01*
Y273042D01*
X339550Y272197D01*
X340197Y271550D01*
X341042Y271200D01*
X341637D01*
X344971Y267866D01*
Y256681D01*
X344073Y256163D01*
X343337Y255427D01*
X342817Y254526D01*
X342547Y253520D01*
Y252480D01*
X342817Y251474D01*
X343337Y250573D01*
X344073Y249837D01*
X344974Y249317D01*
X345980Y249047D01*
X347020D01*
X348026Y249317D01*
X348927Y249837D01*
X349663Y250573D01*
X350183Y251474D01*
X350453Y252480D01*
Y253520D01*
X350183Y254526D01*
X349663Y255427D01*
X348927Y256163D01*
X348029Y256681D01*
Y268500D01*
X347913Y269085D01*
X347581Y269581D01*
X343800Y273363D01*
Y273957D01*
X343450Y274803D01*
X342803Y275450D01*
X341957Y275800D01*
D02*
G37*
G36*
X335457Y281300D02*
X334542D01*
X333697Y280950D01*
X333050Y280303D01*
X332700Y279457D01*
Y278542D01*
X333050Y277697D01*
X333471Y277277D01*
Y256953D01*
X332547D01*
Y249047D01*
X340453D01*
Y256953D01*
X336529D01*
Y277277D01*
X336950Y277697D01*
X337300Y278542D01*
Y279457D01*
X336950Y280303D01*
X336303Y280950D01*
X335457Y281300D01*
D02*
G37*
G36*
X320020Y256953D02*
X318980D01*
X317974Y256683D01*
X317073Y256163D01*
X316337Y255427D01*
X315817Y254526D01*
X315547Y253520D01*
Y252480D01*
X315817Y251474D01*
X316337Y250573D01*
X317073Y249837D01*
X317974Y249317D01*
X318980Y249047D01*
X320020D01*
X321026Y249317D01*
X321927Y249837D01*
X322663Y250573D01*
X323183Y251474D01*
X323453Y252480D01*
Y253520D01*
X323183Y254526D01*
X322663Y255427D01*
X321927Y256163D01*
X321026Y256683D01*
X320020Y256953D01*
D02*
G37*
G36*
X297453D02*
X289547D01*
Y249047D01*
X297453D01*
Y256953D01*
D02*
G37*
G36*
X284020D02*
X282980D01*
X281974Y256683D01*
X281073Y256163D01*
X280337Y255427D01*
X279817Y254526D01*
X279547Y253520D01*
Y252480D01*
X279817Y251474D01*
X280337Y250573D01*
X281073Y249837D01*
X281974Y249317D01*
X282980Y249047D01*
X284020D01*
X285026Y249317D01*
X285927Y249837D01*
X286663Y250573D01*
X287183Y251474D01*
X287453Y252480D01*
Y253520D01*
X287183Y254526D01*
X286663Y255427D01*
X285927Y256163D01*
X285026Y256683D01*
X284020Y256953D01*
D02*
G37*
G36*
X274020D02*
X272980D01*
X271974Y256683D01*
X271073Y256163D01*
X270337Y255427D01*
X269817Y254526D01*
X269547Y253520D01*
Y252480D01*
X269817Y251474D01*
X270337Y250573D01*
X271073Y249837D01*
X271974Y249317D01*
X272980Y249047D01*
X274020D01*
X275026Y249317D01*
X275927Y249837D01*
X276663Y250573D01*
X277183Y251474D01*
X277453Y252480D01*
Y253520D01*
X277183Y254526D01*
X276663Y255427D01*
X275927Y256163D01*
X275026Y256683D01*
X274020Y256953D01*
D02*
G37*
%LPD*%
D10*
X335000Y254500D02*
Y279000D01*
Y254500D02*
X336500Y253000D01*
X341500Y273500D02*
X346500Y268500D01*
Y253000D02*
Y268500D01*
D55*
X338500Y409000D02*
X369315Y439815D01*
Y454500D01*
D57*
X455500Y428000D02*
X466500Y417000D01*
Y399500D02*
Y417000D01*
X463453Y390500D02*
X466500Y393547D01*
Y399500D01*
X439500Y390500D02*
X463453D01*
X435000Y395000D02*
X439500Y390500D01*
X372500Y395000D02*
X435000D01*
X324500Y347000D02*
X372500Y395000D01*
X324500Y316000D02*
Y347000D01*
X314000Y305500D02*
X324500Y316000D01*
X302000Y305500D02*
X314000D01*
D59*
X470268Y448457D02*
D03*
X420268D02*
D03*
D60*
X369315Y454500D02*
D03*
X322500D02*
D03*
D61*
X389000D02*
D03*
X342185D02*
D03*
D62*
X435500Y428000D02*
D03*
D63*
X445500D02*
D03*
X455500D02*
D03*
D64*
X250000Y401500D02*
D03*
X249500Y420500D02*
D03*
X361000Y311000D02*
D03*
Y290500D02*
D03*
D65*
X275500Y449000D02*
D03*
X319500Y253000D02*
D03*
X386500D02*
D03*
X376500D02*
D03*
X366500D02*
D03*
X356500D02*
D03*
X346500D02*
D03*
X446500Y399500D02*
D03*
X456500D02*
D03*
X257000Y367000D02*
D03*
Y357000D02*
D03*
Y347000D02*
D03*
Y337000D02*
D03*
Y327000D02*
D03*
Y317000D02*
D03*
Y307000D02*
D03*
Y297000D02*
D03*
Y287000D02*
D03*
Y277000D02*
D03*
Y267000D02*
D03*
X350500Y395500D02*
D03*
X468000Y304000D02*
D03*
X273500Y253000D02*
D03*
X283500D02*
D03*
X401000D02*
D03*
D66*
X265500Y449000D02*
D03*
X309500Y253000D02*
D03*
X336500D02*
D03*
X466500Y399500D02*
D03*
X360500Y395500D02*
D03*
X293500Y253000D02*
D03*
X411000D02*
D03*
D67*
X257000Y377000D02*
D03*
X468000Y294000D02*
D03*
D68*
X338500Y409000D02*
D03*
X302000Y305500D02*
D03*
D69*
X310000Y346000D02*
D03*
Y326000D02*
D03*
X292000Y346000D02*
D03*
Y326000D02*
D03*
D70*
X335000Y279000D02*
D03*
X341500Y273500D02*
D03*
M02*
