G04*
G04 #@! TF.GenerationSoftware,Altium Limited,Altium Designer,21.6.4 (81)*
G04*
G04 Layer_Color=32768*
%FSLAX25Y25*%
%MOIN*%
G70*
G04*
G04 #@! TF.SameCoordinates,6001098F-4103-4765-8BFB-48233E876DC5*
G04*
G04*
G04 #@! TF.FilePolarity,Positive*
G04*
G01*
G75*
%ADD11C,0.00600*%
%ADD15C,0.00394*%
%ADD73C,0.00197*%
G36*
X467000Y419650D02*
X424000D01*
Y439750D01*
X467000D01*
Y419650D01*
D02*
G37*
D11*
X424000D02*
Y439750D01*
X467000D01*
Y419650D02*
Y439750D01*
X424000Y419650D02*
X467000D01*
X382681Y406390D02*
Y412571D01*
X385357D01*
X397557Y412532D02*
X400240D01*
Y406390D02*
Y412532D01*
X397557Y406390D02*
X400240D01*
X382681D02*
X385357D01*
Y405315D02*
Y406390D01*
Y412571D02*
Y413615D01*
X397557D01*
Y412532D02*
Y413615D01*
Y405315D02*
Y406390D01*
X385357Y405315D02*
X397557D01*
D15*
X269425Y370000D02*
X272575D01*
X271000Y368425D02*
Y371575D01*
X328925Y378500D02*
X332075D01*
X330500Y376925D02*
Y380075D01*
X485228Y409087D02*
Y479559D01*
X405307D02*
X485228D01*
X405307Y409087D02*
X485228D01*
X405307D02*
Y479559D01*
X355315Y468124D02*
Y475500D01*
Y437500D02*
Y447813D01*
Y468124D01*
Y437500D02*
X399815D01*
Y475500D01*
X355315D02*
X399815D01*
X308815Y468124D02*
Y475500D01*
Y437500D02*
Y447813D01*
Y468124D01*
Y437500D02*
X353315D01*
Y475500D01*
X308815D02*
X353315D01*
X310000Y393531D02*
Y397468D01*
X308032Y395500D02*
X311968D01*
X310000Y404531D02*
Y408468D01*
X308032Y406500D02*
X311968D01*
X310000Y415031D02*
Y418968D01*
X308032Y417000D02*
X311968D01*
X328000Y332425D02*
Y335575D01*
X326425Y334000D02*
X329575D01*
X394500Y420425D02*
Y423575D01*
X392925Y422000D02*
X396075D01*
X380000Y420425D02*
Y423575D01*
X378425Y422000D02*
X381575D01*
X365252Y420425D02*
Y423575D01*
X363677Y422000D02*
X366827D01*
X335500Y420425D02*
Y423575D01*
X333925Y422000D02*
X337075D01*
X301000Y334032D02*
Y337968D01*
X299031Y336000D02*
X302969D01*
X386752Y260925D02*
Y264075D01*
X385177Y262500D02*
X388327D01*
X348425Y422000D02*
X351575D01*
X350000Y420425D02*
Y423575D01*
X298000Y425032D02*
Y428968D01*
X296031Y427000D02*
X299969D01*
X298000Y435532D02*
Y439468D01*
X296031Y437500D02*
X299969D01*
X298000Y446032D02*
Y449968D01*
X296031Y448000D02*
X299969D01*
X298000Y456531D02*
Y460468D01*
X296031Y458500D02*
X299969D01*
X375000Y260925D02*
Y264075D01*
X373425Y262500D02*
X376575D01*
X323000Y263925D02*
Y267075D01*
X321425Y265500D02*
X324575D01*
X401000Y346532D02*
Y350468D01*
X399031Y348500D02*
X402969D01*
X399031Y370000D02*
X402969D01*
X401000Y368032D02*
Y371969D01*
X478500Y394032D02*
Y397969D01*
X476532Y396000D02*
X480469D01*
X296532Y293000D02*
X300468D01*
X298500Y291032D02*
Y294969D01*
X303532Y293000D02*
X307469D01*
X305500Y291032D02*
Y294969D01*
X356000Y403031D02*
Y406968D01*
X354031Y405000D02*
X357968D01*
X316032Y293000D02*
X319969D01*
X318000Y291032D02*
Y294969D01*
X284032Y293000D02*
X287968D01*
X286000Y291032D02*
Y294969D01*
X311500Y361531D02*
Y365469D01*
X309531Y363500D02*
X313469D01*
X293500Y361531D02*
Y365469D01*
X291531Y363500D02*
X295468D01*
X270500Y377031D02*
Y380968D01*
X268531Y379000D02*
X272468D01*
D73*
X265882Y367835D02*
Y372165D01*
X276118Y367835D02*
Y372165D01*
X265882D02*
X276118D01*
X265882Y367835D02*
X276118D01*
X325382Y376335D02*
Y380665D01*
X335618Y376335D02*
Y380665D01*
X325382D02*
X335618D01*
X325382Y376335D02*
X335618D01*
X301732Y399240D02*
X318268D01*
X301732Y391760D02*
X318268D01*
X301732D02*
Y399240D01*
X318268Y391760D02*
Y399240D01*
X301732Y402760D02*
X318268D01*
X301732Y410240D02*
X318268D01*
Y402760D02*
Y410240D01*
X301732Y402760D02*
Y410240D01*
Y420740D02*
X318268D01*
X301732Y413260D02*
X318268D01*
X301732D02*
Y420740D01*
X318268Y413260D02*
Y420740D01*
X325835Y328882D02*
X330165D01*
X325835Y339118D02*
X330165D01*
X325835Y328882D02*
Y339118D01*
X330165Y328882D02*
Y339118D01*
X389382Y424165D02*
X399618D01*
X389382Y419835D02*
X399618D01*
X389382D02*
Y424165D01*
X399618Y419835D02*
Y424165D01*
X374882D02*
X385118D01*
X374882Y419835D02*
X385118D01*
X374882D02*
Y424165D01*
X385118Y419835D02*
Y424165D01*
X360134D02*
X370370D01*
X360134Y419835D02*
X370370D01*
X360134D02*
Y424165D01*
X370370Y419835D02*
Y424165D01*
X330382D02*
X340618D01*
X330382Y419835D02*
X340618D01*
X330382D02*
Y424165D01*
X340618Y419835D02*
Y424165D01*
X414602Y284539D02*
Y314917D01*
X452595D01*
X452595Y284539D01*
X414602D02*
X452595D01*
X281315Y316315D02*
X320685D01*
X281315Y355685D02*
X320685D01*
Y316315D02*
Y355685D01*
X281315Y316315D02*
Y355685D01*
X381634Y260335D02*
X391870D01*
X381634Y264665D02*
X391870D01*
Y260335D02*
Y264665D01*
X381634Y260335D02*
Y264665D01*
X355118Y419835D02*
Y424165D01*
X344882Y419835D02*
Y424165D01*
Y419835D02*
X355118D01*
X344882Y424165D02*
X355118D01*
X289732Y430740D02*
X306268D01*
X289732Y423260D02*
X306268D01*
X289732D02*
Y430740D01*
X306268Y423260D02*
Y430740D01*
X289732Y433760D02*
X306268D01*
X289732Y441240D02*
X306268D01*
Y433760D02*
Y441240D01*
X289732Y433760D02*
Y441240D01*
Y451740D02*
X306268D01*
X289732Y444260D02*
X306268D01*
X289732D02*
Y451740D01*
X306268Y444260D02*
Y451740D01*
X289732Y454760D02*
X306268D01*
X289732Y462240D02*
X306268D01*
Y454760D02*
Y462240D01*
X289732Y454760D02*
Y462240D01*
X369882Y264665D02*
X380118D01*
X369882Y260335D02*
X380118D01*
X369882D02*
Y264665D01*
X380118Y260335D02*
Y264665D01*
X317882Y263335D02*
X328118D01*
X317882Y267665D02*
X328118D01*
Y263335D02*
Y267665D01*
X317882Y263335D02*
Y267665D01*
X394898Y351650D02*
X407102D01*
X394898Y345350D02*
X407102D01*
X394898D02*
Y351650D01*
X407102Y345350D02*
Y351650D01*
Y366850D02*
Y373150D01*
X394898Y366850D02*
Y373150D01*
Y366850D02*
X407102D01*
X394898Y373150D02*
X407102D01*
X475350Y402102D02*
X481650D01*
X475350Y389898D02*
X481650D01*
Y402102D01*
X475350Y389898D02*
Y402102D01*
X295350Y286898D02*
Y299102D01*
X301650Y286898D02*
Y299102D01*
X295350Y286898D02*
X301650D01*
X295350Y299102D02*
X301650D01*
X302350Y286898D02*
Y299102D01*
X308650Y286898D02*
Y299102D01*
X302350Y286898D02*
X308650D01*
X302350Y299102D02*
X308650D01*
X349898Y401850D02*
X362102D01*
X349898Y408150D02*
X362102D01*
Y401850D02*
Y408150D01*
X349898Y401850D02*
Y408150D01*
X314850Y286898D02*
Y299102D01*
X321150Y286898D02*
Y299102D01*
X314850Y286898D02*
X321150D01*
X314850Y299102D02*
X321150D01*
X282850Y286898D02*
Y299102D01*
X289150Y286898D02*
Y299102D01*
X282850Y286898D02*
X289150D01*
X282850Y299102D02*
X289150D01*
X305398Y360350D02*
X317602D01*
X305398Y366650D02*
X317602D01*
Y360350D02*
Y366650D01*
X305398Y360350D02*
Y366650D01*
X287398Y360350D02*
X299602D01*
X287398Y366650D02*
X299602D01*
Y360350D02*
Y366650D01*
X287398Y360350D02*
Y366650D01*
X264398Y375850D02*
X276602D01*
X264398Y382150D02*
X276602D01*
Y375850D02*
Y382150D01*
X264398Y375850D02*
Y382150D01*
M02*
