G04*
G04 #@! TF.GenerationSoftware,Altium Limited,Altium Designer,21.6.4 (81)*
G04*
G04 Layer_Color=8388736*
%FSLAX25Y25*%
%MOIN*%
G70*
G04*
G04 #@! TF.SameCoordinates,8AD03C7C-95CA-41BD-B497-73EC2F137F48*
G04*
G04*
G04 #@! TF.FilePolarity,Negative*
G04*
G01*
G75*
%ADD28R,0.04724X0.05512*%
%ADD31R,0.03150X0.03740*%
%ADD32R,0.06890X0.03937*%
%ADD33R,0.03740X0.03150*%
%ADD34R,0.05394X0.02402*%
%ADD35R,0.17520X0.17520*%
%ADD36O,0.01575X0.05906*%
%ADD37O,0.05906X0.01575*%
%ADD38R,0.08661X0.22441*%
%ADD39R,0.03937X0.06890*%
%ADD40R,0.04331X0.05709*%
%ADD41R,0.05709X0.04331*%
%ADD42C,0.12205*%
%ADD43C,0.08071*%
%ADD44R,0.08071X0.08071*%
%ADD45R,0.06894X0.06894*%
%ADD46C,0.06894*%
%ADD47C,0.10394*%
%ADD48C,0.06299*%
%ADD49R,0.06299X0.06299*%
%ADD50R,0.06299X0.06299*%
%ADD51C,0.05394*%
%ADD52C,0.02362*%
%ADD53C,0.02994*%
D28*
X385407Y409465D02*
D03*
X397507D02*
D03*
D31*
X267752Y370000D02*
D03*
X274248D02*
D03*
X327252Y378500D02*
D03*
X333748D02*
D03*
X391252Y422000D02*
D03*
X397748D02*
D03*
X376752D02*
D03*
X383248D02*
D03*
X362004D02*
D03*
X368500D02*
D03*
X332252D02*
D03*
X338748D02*
D03*
X390000Y262500D02*
D03*
X383504D02*
D03*
X346752Y422000D02*
D03*
X353248D02*
D03*
X371752Y262500D02*
D03*
X378248D02*
D03*
X326248Y265500D02*
D03*
X319752D02*
D03*
D32*
X297500Y469996D02*
D03*
Y482004D02*
D03*
Y447996D02*
D03*
Y460004D02*
D03*
Y426496D02*
D03*
Y438504D02*
D03*
Y404496D02*
D03*
Y416504D02*
D03*
D33*
X328000Y337248D02*
D03*
Y330752D02*
D03*
D34*
X417555Y309894D02*
D03*
Y299500D02*
D03*
X417575Y289539D02*
D03*
X449622Y299500D02*
D03*
X449622Y309894D02*
D03*
X449622Y289539D02*
D03*
D35*
X301000Y336000D02*
D03*
D36*
X290173Y352535D02*
D03*
X294110D02*
D03*
X298047D02*
D03*
X300016D02*
D03*
X305921D02*
D03*
X307890D02*
D03*
X309858D02*
D03*
X311827D02*
D03*
Y319465D02*
D03*
X309858D02*
D03*
X307890D02*
D03*
X305921D02*
D03*
X303953D02*
D03*
X301984D02*
D03*
X300016D02*
D03*
X298047D02*
D03*
X296079D02*
D03*
X294110D02*
D03*
X292142D02*
D03*
X290173D02*
D03*
X301984Y352535D02*
D03*
X303953D02*
D03*
X296079D02*
D03*
X292142D02*
D03*
D37*
X317535Y346827D02*
D03*
Y344858D02*
D03*
Y342890D02*
D03*
Y340921D02*
D03*
Y338953D02*
D03*
Y336984D02*
D03*
Y333047D02*
D03*
Y331079D02*
D03*
Y329110D02*
D03*
Y327142D02*
D03*
Y325173D02*
D03*
X284465D02*
D03*
Y327142D02*
D03*
Y329110D02*
D03*
Y331079D02*
D03*
Y333047D02*
D03*
Y335016D02*
D03*
Y336984D02*
D03*
Y338953D02*
D03*
Y340921D02*
D03*
Y342890D02*
D03*
Y344858D02*
D03*
Y346827D02*
D03*
X317535Y335016D02*
D03*
D38*
X382500Y377701D02*
D03*
Y340299D02*
D03*
D39*
X323004Y405500D02*
D03*
X310996D02*
D03*
X310996Y416500D02*
D03*
X323004D02*
D03*
X323004Y428000D02*
D03*
X310996D02*
D03*
D40*
X397358Y348500D02*
D03*
X404642D02*
D03*
Y370000D02*
D03*
X397358D02*
D03*
X359642Y405000D02*
D03*
X352358D02*
D03*
X315142Y363500D02*
D03*
X307858D02*
D03*
X297142D02*
D03*
X289858D02*
D03*
X274142Y379000D02*
D03*
X266858D02*
D03*
D41*
X478500Y399642D02*
D03*
Y392358D02*
D03*
X298500Y289358D02*
D03*
Y296642D02*
D03*
X305500Y289358D02*
D03*
Y296642D02*
D03*
X318000Y289358D02*
D03*
Y296642D02*
D03*
X286000Y289358D02*
D03*
Y296642D02*
D03*
D42*
X470268Y448457D02*
D03*
X420268D02*
D03*
D43*
X369315Y454500D02*
D03*
X322500D02*
D03*
D44*
X389000D02*
D03*
X342185D02*
D03*
D45*
X435500Y428000D02*
D03*
D46*
X445500D02*
D03*
X455500D02*
D03*
D47*
X250000Y401500D02*
D03*
X249500Y420500D02*
D03*
X361000Y311000D02*
D03*
Y290500D02*
D03*
D48*
X275500Y449000D02*
D03*
X319500Y253000D02*
D03*
X386500D02*
D03*
X376500D02*
D03*
X366500D02*
D03*
X356500D02*
D03*
X346500D02*
D03*
X446500Y399500D02*
D03*
X456500D02*
D03*
X257000Y367000D02*
D03*
Y357000D02*
D03*
Y347000D02*
D03*
Y337000D02*
D03*
Y327000D02*
D03*
Y317000D02*
D03*
Y307000D02*
D03*
Y297000D02*
D03*
Y287000D02*
D03*
Y277000D02*
D03*
Y267000D02*
D03*
X350500Y395500D02*
D03*
X468000Y304000D02*
D03*
X273500Y253000D02*
D03*
X283500D02*
D03*
X401000D02*
D03*
D49*
X265500Y449000D02*
D03*
X309500Y253000D02*
D03*
X336500D02*
D03*
X466500Y399500D02*
D03*
X360500Y395500D02*
D03*
X293500Y253000D02*
D03*
X411000D02*
D03*
D50*
X257000Y377000D02*
D03*
X468000Y294000D02*
D03*
D51*
X338500Y409000D02*
D03*
X302000Y305500D02*
D03*
D52*
X310000Y346000D02*
D03*
Y326000D02*
D03*
X292000Y346000D02*
D03*
Y326000D02*
D03*
D53*
X335000Y279000D02*
D03*
X341500Y273500D02*
D03*
M02*
