M48
;Layer_Color=9474304
;FILE_FORMAT=2:5
INCH,TZ
;TYPE=PLATED
T1F00S00C0.01181
T2F00S00C0.01400
T3F00S00C0.02800
T4F00S00C0.03543
T5F00S00C0.04000
T6F00S00C0.04500
T7F00S00C0.05000
T8F00S00C0.05118
T9F00S00C0.07874
%
T01
X292000Y326000
X310000
Y346000
X292000
T02
X335000Y279000
X341500Y273500
T03
X302000Y305500
X338500Y409000
T04
X319500Y253000
X336500
X346500
X356500
X366500
X376500
X386500
X401000
X411000
X468000Y294000
Y304000
X309500Y253000
X293500
X283500
X273500
X257000Y267000
Y277000
Y287000
Y297000
Y307000
Y317000
Y327000
Y337000
Y347000
Y357000
Y367000
Y377000
X256000Y421500
Y431500
X350500Y395500
X360500
X446500Y399500
X456500
X466500
T05
X265500Y398500
X307000Y381000
T06
X435500Y428000
X445500
X455500
T07
X361000Y290500
Y311000
X282500Y473500
X256500
T08
X319815Y458500
X339500
X366815
X386500
T09
X420268Y448457
X470268
M30
